<?xml version="1.0" encoding="UTF-8" standalone="no"?>
<!-- Generated by graphviz version 2.38.0 (20140413.2041)
 -->

<!-- Title: %3 Pages: 1 -->

<svg
   xmlns:dc="http://purl.org/dc/elements/1.1/"
   xmlns:cc="http://creativecommons.org/ns#"
   xmlns:rdf="http://www.w3.org/1999/02/22-rdf-syntax-ns#"
   xmlns:svg="http://www.w3.org/2000/svg"
   xmlns="http://www.w3.org/2000/svg"
   xmlns:sodipodi="http://sodipodi.sourceforge.net/DTD/sodipodi-0.dtd"
   xmlns:inkscape="http://www.inkscape.org/namespaces/inkscape"
   width="1450"
   height="1075"
   viewBox="0 0 1160 860"
   id="svg4489"
   version="1.1"
   inkscape:version="0.48.4 r9943 custom"
   sodipodi:docname="pco_2.svg"
   inkscape:export-filename="/Users/mynarzjindrich/Dropbox/Public/dissertation/img/pco.png"
   inkscape:export-xdpi="90"
   inkscape:export-ydpi="90">
  <metadata
     id="metadata4956">
    <rdf:RDF>
      <cc:Work
         rdf:about="">
        <dc:format>image/svg+xml</dc:format>
        <dc:type
           rdf:resource="http://purl.org/dc/dcmitype/StillImage" />
        <dc:title></dc:title>
      </cc:Work>
    </rdf:RDF>
  </metadata>
  <defs
     id="defs4954" />
  <sodipodi:namedview
     pagecolor="#ffffff"
     bordercolor="#666666"
     borderopacity="1"
     objecttolerance="10"
     gridtolerance="10"
     guidetolerance="10"
     inkscape:pageopacity="0"
     inkscape:pageshadow="2"
     inkscape:window-width="1280"
     inkscape:window-height="751"
     id="namedview4952"
     showgrid="false"
     inkscape:zoom="1.2522655"
     inkscape:cx="994.98531"
     inkscape:cy="17.633046"
     inkscape:window-x="0"
     inkscape:window-y="23"
     inkscape:window-maximized="0"
     inkscape:current-layer="svg4489"
     showguides="true"
     inkscape:guide-bbox="true" />
  <text
     x="1320.8016"
     y="160.70001"
     font-size="14.00"
     id="text4641"
     style="font-size:14px;text-anchor:start;font-family:Monaco" />
  <text
     x="1282.8016"
     y="385.20001"
     font-size="14.00"
     id="text4667"
     style="font-size:14px;text-anchor:start;font-family:Monaco" />
  <text
     x="864.61255"
     y="634.20001"
     font-size="14.00"
     id="text4695"
     style="font-size:14px;text-anchor:start;font-family:Monaco" />
  <text
     x="839.61255"
     y="704.20001"
     font-size="14.00"
     id="text4715"
     style="font-size:14px;text-anchor:start;font-family:Monaco" />
  <text
     x="847.61255"
     y="774.20001"
     font-size="14.00"
     id="text4739"
     style="font-size:14px;text-anchor:start;font-family:Monaco" />
  <text
     x="1324.8016"
     y="488.20001"
     font-size="14.00"
     id="text4759"
     style="font-size:14px;text-anchor:start;font-family:Monaco" />
  <text
     x="834.61255"
     y="844.20001"
     font-size="14.00"
     id="text4779"
     style="font-size:14px;text-anchor:start;font-family:Monaco" />
  <text
     x="1257.8016"
     y="564.20001"
     font-size="14.00"
     id="text4877"
     style="font-size:14px;text-anchor:start;font-family:Monaco" />
  <text
     x="132.69321"
     y="400.65729"
     font-size="14.00"
     id="text4499"
     style="font-size:14px;text-anchor:start;font-family:Monaco">:Contract</text>
  <text
     x="14.4992"
     y="423.05728"
     font-size="10.00"
     id="text4501"
     style="font-size:10px;text-anchor:start;font-family:Monaco">:actualEndDate</text>
  <text
     x="280.30072"
     y="423.05728"
     font-size="10.00"
     id="text4503"
     style="font-size:10px;text-anchor:start;fill:#696969;font-family:Monaco">xsd:date</text>
  <text
     x="14.4992"
     y="442.05728"
     font-size="10.00"
     id="text4505"
     style="font-size:10px;text-anchor:start;font-family:Monaco">:awardDate</text>
  <text
     x="280.30072"
     y="442.05728"
     font-size="10.00"
     id="text4507"
     style="font-size:10px;text-anchor:start;fill:#696969;font-family:Monaco">xsd:date</text>
  <text
     x="14.485192"
     y="461.05728"
     font-size="10.00"
     id="text4509"
     style="font-size:10px;text-anchor:start;font-family:Monaco">:documentationRequestDeadline</text>
  <text
     x="256.414"
     y="461.05728"
     font-size="10.00"
     id="text4511"
     style="font-size:10px;text-anchor:start;fill:#696969;font-family:Monaco">xsd:dateTime</text>
  <text
     x="14.4992"
     y="480.05728"
     font-size="10.00"
     id="text4513"
     style="font-size:10px;text-anchor:start;font-family:Monaco">:duration</text>
  <text
     x="261.08685"
     y="480.05728"
     font-size="10.00"
     id="text4515"
     style="font-size:10px;text-anchor:start;fill:#696969;font-family:Monaco">xsd:duration</text>
  <text
     x="14.4992"
     y="499.05728"
     font-size="10.00"
     id="text4517"
     style="font-size:10px;text-anchor:start;font-family:Monaco">:estimatedEndDate</text>
  <text
     x="280.30072"
     y="499.05728"
     font-size="10.00"
     id="text4519"
     style="font-size:10px;text-anchor:start;fill:#696969;font-family:Monaco">xsd:date</text>
  <text
     x="14.4992"
     y="518.05725"
     font-size="10.00"
     id="text4521"
     style="font-size:10px;text-anchor:start;font-family:Monaco">:numberOfTenders</text>
  <text
     x="202.14642"
     y="518.05725"
     font-size="10.00"
     id="text4523"
     style="font-size:10px;text-anchor:start;fill:#696969;font-family:Monaco">xsd:nonNegativeInteger</text>
  <text
     x="14.4992"
     y="537.05725"
     font-size="10.00"
     id="text4525"
     style="font-size:10px;text-anchor:start;font-family:Monaco">:startDate</text>
  <text
     x="280.30072"
     y="537.05725"
     font-size="10.00"
     id="text4527"
     style="font-size:10px;text-anchor:start;fill:#696969;font-family:Monaco">xsd:date</text>
  <text
     x="14.4992"
     y="556.05725"
     font-size="10.00"
     id="text4529"
     style="font-size:10px;text-anchor:start;font-family:Monaco">:tenderDeadline</text>
  <text
     x="256.414"
     y="556.05725"
     font-size="10.00"
     id="text4531"
     style="font-size:10px;text-anchor:start;fill:#696969;font-family:Monaco">xsd:dateTime</text>
  <text
     x="14.4992"
     y="575.05725"
     font-size="10.00"
     id="text4533"
     style="font-size:10px;text-anchor:start;font-family:Monaco">:tenderMaintenanceDuration</text>
  <text
     x="261.08685"
     y="575.05725"
     font-size="10.00"
     id="text4535"
     style="font-size:10px;text-anchor:start;fill:#696969;font-family:Monaco">xsd:duration</text>
  <polygon
     points="558,-441 558,-441 236,-441 236,-441 236,-441 "
     id="polygon4537"
     style="fill:#000000;stroke:#000000"
     transform="translate(-226.5008,851.45729)" />
  <path
     transform="translate(-226.5008,851.45729)"
     style="fill:none;stroke:#000000"
     d="m 558,-467.5 0,235.52484 -322,0 0,0 0,-235.52484 z"
     id="polygon4539"
     inkscape:connector-curvature="0"
     sodipodi:nodetypes="cccccc" />
  <path
     d="m 137.6222,383.59429 c 2.96448,-16.43188 10.7279,-51.15249 32.877,-51.15249 22.1491,0 24.41192,30.95752 26.04744,42.68493"
     id="path4544"
     inkscape:connector-curvature="0"
     style="fill:none;stroke:#000000"
     sodipodi:nodetypes="czc" />
  <polygon
     points="426.76,-471.772 423.643,-475.682 423.643,-475.682 423.643,-475.682 426.76,-471.772 420.124,-472.877 429.877,-467.863 429.877,-467.863 429.877,-467.863 427.162,-478.487 "
     id="polygon4546"
     style="fill:#000000;stroke:#000000"
     transform="matrix(0.85978723,0.51065245,-0.51065245,0.85978723,-410.90742,565.18682)" />
  <text
     x="162.06268"
     y="326.94675"
     font-size="10.00"
     id="text4548"
     style="font-size:10px;text-anchor:start;font-family:Monaco">:lot</text>
  <text
     x="560.65942"
     y="408.65729"
     font-size="14.00"
     id="text4553"
     style="font-size:14px;text-anchor:start;font-family:Monaco">:Tender</text>
  <text
     x="583.11176"
     y="432.65729"
     font-size="14.00"
     id="text4555"
     style="font-size:14px;text-anchor:start;font-family:Monaco" />
  <polygon
     points="898,-433 828,-433 828,-433 828,-433 898,-433 "
     id="polygon4557"
     style="fill:#000000;stroke:#000000"
     transform="translate(-275.68725,851.45729)" />
  <polygon
     points="898,-407 828,-407 828,-407 828,-459 898,-459 "
     id="polygon4559"
     style="fill:none;stroke:#000000"
     transform="translate(-275.68725,851.45729)" />
  <path
     d="m 331.5062,461.04229 c 91.713,-12.848 150.35408,-20.29504 209.75708,-28.61704"
     id="path4564"
     inkscape:connector-curvature="0"
     style="fill:none;stroke:#000000"
     sodipodi:nodetypes="cc" />
  <polygon
     points="827.653,-428.188 827.653,-428.188 817.125,-431.258 822.701,-427.495 817.75,-426.801 817.75,-426.801 817.75,-426.801 822.701,-427.495 818.374,-422.345 827.653,-428.188 "
     id="polygon4566"
     style="fill:#000000;stroke:#000000"
     transform="translate(-276.74045,859.22713)" />
  <g
     id="g5247"
     transform="translate(-217.64382,-59.180233)">
    <text
       style="font-size:10px;text-anchor:start;font-family:Monaco"
       id="text4568"
       font-size="10.00"
       y="481"
       x="616.99298">:awardedTender</text>
    <text
       style="font-size:10px;text-anchor:start;font-family:Monaco"
       id="text4570"
       font-size="10.00"
       y="500"
       x="617">:tender</text>
  </g>
  <text
     x="401.32306"
     y="129.6573"
     font-size="14.00"
     id="text4575"
     style="font-size:14px;text-anchor:start;font-family:Monaco">:AwardCriteriaCombination</text>
  <text
     x="491.85449"
     y="153.6573"
     font-size="14.00"
     id="text4577"
     style="font-size:14px;text-anchor:start;font-family:Monaco" />
  <polygon
     points="974,-712 752,-712 752,-712 752,-712 974,-712 "
     id="polygon4579"
     style="fill:#000000;stroke:#000000"
     transform="translate(-366.94453,851.45729)" />
  <polygon
     points="974,-686 752,-686 752,-686 752,-738 974,-738 "
     id="polygon4581"
     style="fill:none;stroke:#000000"
     transform="translate(-366.94453,851.45729)" />
  <path
     d="M 213.1852,383.72229 C 213.73932,210.27632 323.34465,148.58377 375.9979,148.46305"
     id="path4586"
     inkscape:connector-curvature="0"
     style="fill:none;stroke:#000000"
     sodipodi:nodetypes="cc" />
  <polygon
     points="741.217,-707.266 746.854,-703.596 741.914,-702.82 741.914,-702.82 741.914,-702.82 746.854,-703.596 742.612,-698.375 751.793,-704.371 751.793,-704.371 751.793,-704.371 "
     id="polygon4588"
     style="fill:#000000;stroke:#000000"
     transform="matrix(0.99074733,0.13571928,-0.13571928,0.99074733,-456.95866,744.25321)" />
  <text
     x="240.11166"
     y="265.43088"
     font-size="10.00"
     id="text4590"
     style="font-size:10px;text-anchor:start;font-family:Monaco">:awardCriteriaCombination</text>
  <text
     x="557.6145"
     y="535.65729"
     font-size="14.00"
     id="text4595"
     style="font-size:14px;text-anchor:start;font-family:Monaco">:FrameworkAgreement</text>
  <text
     x="634.11176"
     y="559.65729"
     font-size="14.00"
     id="text4597"
     style="font-size:14px;text-anchor:start;font-family:Monaco" />
  <polygon
     points="778,-306 778,-306 778,-306 949,-306 949,-306 "
     id="polygon4599"
     style="fill:#000000;stroke:#000000"
     transform="translate(-225.18725,851.45729)" />
  <polygon
     points="777.5,-280 777.5,-280 777.5,-332 948.5,-332 948.5,-280 "
     id="polygon4601"
     style="fill:none;stroke:#000000"
     transform="translate(-225.18725,851.45729)" />
  <path
     d="m 331.9562,515.77429 c 5.915,0.947 11.777,1.846 17.543,2.683 63.424,9.206 135.237,15.973 191.037,20.43"
     id="path4606"
     inkscape:connector-curvature="0"
     style="fill:none;stroke:#000000" />
  <polygon
     points="766.941,-308.064 777.264,-311.765 777.264,-311.765 777.264,-311.765 767.648,-317.036 772.279,-312.158 767.295,-312.55 767.295,-312.55 767.295,-312.55 772.279,-312.158 "
     id="polygon4608"
     style="fill:#000000;stroke:#000000"
     transform="translate(-226.5008,851.45729)" />
  <text
     x="386.8197"
     y="517.86926"
     font-size="10.00"
     id="text4610"
     style="font-size:10px;text-anchor:start;font-family:Monaco">:frameworkAgreement</text>
  <text
     x="722.70111"
     y="216.6573"
     font-size="14.00"
     id="text4615"
     style="font-size:14px;text-anchor:start;font-family:Monaco">gr:BusinessEntity</text>
  <text
     x="711.78705"
     y="237.45729"
     font-size="10.00"
     id="text4617"
     style="font-size:10px;text-anchor:start;font-family:Monaco">:profile</text>
  <text
     x="795.77704"
     y="237.45729"
     font-size="10.00"
     id="text4619"
     style="font-size:10px;text-anchor:start;fill:#696969;font-family:Monaco">xsd:anyURI</text>
  <polygon
     points="1216,-625 1216,-625 1216,-625 1370,-625 1370,-625 "
     id="polygon4621"
     style="fill:#000000;stroke:#000000;stroke-width:1;stroke-miterlimit:4;stroke-dasharray:none;stroke-dashoffset:0"
     transform="translate(-509.21294,851.45729)" />
  <polygon
     points="1216,-604.5 1216,-604.5 1216,-651.5 1370,-651.5 1370,-604.5 "
     id="polygon4623"
     style="fill:none;stroke:#000000;stroke-width:1;stroke-miterlimit:4;stroke-dasharray:none;stroke-dashoffset:0"
     transform="translate(-509.21294,851.45729)" />
  <path
     d="M 284.4312,383.81629 C 460.84499,232.87858 648.76114,227.23626 697.25777,226.83912"
     id="path4628"
     inkscape:connector-curvature="0"
     style="fill:none;stroke:#000000"
     sodipodi:nodetypes="cc" />
  <polygon
     points="1215.94,-629.97 1215.94,-629.97 1206.02,-634.654 1210.94,-630.063 1205.94,-630.155 1205.94,-630.155 1205.94,-630.155 1210.94,-630.063 1205.86,-625.656 1215.94,-629.97 "
     id="polygon4630"
     style="fill:#000000;stroke:#000000"
     transform="translate(-510.88503,857.03264)" />
  <g
     id="g5284"
     transform="translate(-253.8667,-53.379022)">
    <text
       style="font-size:10px;text-anchor:start;font-family:Monaco"
       id="text4632"
       font-size="10.00"
       y="265"
       x="803.98999">:contractingAuthority</text>
    <text
       style="font-size:10px;text-anchor:start;font-family:Monaco"
       id="text4634"
       font-size="10.00"
       y="284"
       x="804">:onBehalfOf</text>
  </g>
  <text
     x="1047.5618"
     y="132.1573"
     font-size="14.00"
     id="text4639"
     style="font-size:14px;text-anchor:start;font-family:Monaco">skos:Concept</text>
  <polygon
     points="1564,-712 1564,-712 1676,-712 1676,-712 1564,-712 "
     id="polygon4643"
     style="fill:#000000;stroke:#000000;stroke-width:1;stroke-miterlimit:4;stroke-dasharray:none;stroke-dashoffset:0"
     transform="translate(-525.49921,853.95729)" />
  <polygon
     points="1564,-686 1564,-738 1676,-738 1676,-686 1564,-686 "
     id="polygon4645"
     style="fill:none;stroke:#000000;stroke-width:1;stroke-miterlimit:4;stroke-dasharray:none;stroke-dashoffset:0"
     transform="translate(-525.49921,853.95729)" />
  <path
     d="M 201.50365,383.89929 C 200.43263,-103.50246 1052.625,-28.597289 1052.2578,106.71464"
     id="path4650"
     inkscape:connector-curvature="0"
     style="fill:none;stroke:#000000"
     sodipodi:nodetypes="cc" />
  <polygon
     points="1554.37,-736.482 1554.37,-736.482 1554.37,-736.482 1559.08,-734.805 1552.86,-732.243 1563.79,-733.127 1563.79,-733.127 1563.79,-733.127 1555.88,-740.722 1559.08,-734.805 "
     id="polygon4652"
     style="fill:#000000;stroke:#000000"
     transform="matrix(0.34928732,0.93701567,-0.93701567,0.34928732,-180.67547,-1094.8014)" />
  <g
     id="g5305"
     transform="translate(-321.87481,4.1888)">
    <text
       style="font-size:10px;text-anchor:start;font-family:Monaco"
       id="text4654"
       font-size="10.00"
       y="16"
       x="1026.99">:additionalObject</text>
    <text
       style="font-size:10px;text-anchor:start;font-family:Monaco"
       id="text4656"
       font-size="10.00"
       y="35"
       x="1027">:kind</text>
    <text
       style="font-size:10px;text-anchor:start;font-family:Monaco"
       id="text4658"
       font-size="10.00"
       y="54"
       x="1027">:mainObject</text>
    <text
       style="font-size:10px;text-anchor:start;font-family:Monaco"
       id="text4660"
       font-size="10.00"
       y="73"
       x="1027">:procedureType</text>
  </g>
  <text
     x="985.10284"
     y="356.65729"
     font-size="14.00"
     id="text4665"
     style="font-size:14px;text-anchor:start;font-family:Monaco">gr:PriceSpecification</text>
  <polygon
     points="1387,-485 1199,-485 1199,-485 1199,-485 1387,-485 "
     id="polygon4669"
     style="fill:#000000;stroke:#000000;stroke-width:1;stroke-miterlimit:4;stroke-dasharray:none;stroke-dashoffset:0"
     transform="translate(-236.49921,851.45729)" />
  <polygon
     points="1387,-459 1199,-459 1199,-459 1199,-511 1387,-511 "
     id="polygon4671"
     style="fill:none;stroke:#000000;stroke-width:1;stroke-miterlimit:4;stroke-dasharray:none;stroke-dashoffset:0"
     transform="translate(-236.49921,851.45729)" />
  <path
     d="M 331.7482,399.26729 C 522.01949,354.12844 770.63608,328.79212 951.6405,348.05734"
     id="path4676"
     inkscape:connector-curvature="0"
     style="fill:none;stroke:#000000"
     sodipodi:nodetypes="cc" />
  <polygon
     points="1198.92,-500.526 1198.92,-500.526 1189.55,-506.227 1193.96,-501.143 1189,-501.761 1189,-501.761 1189,-501.761 1193.96,-501.143 1188.44,-497.296 1198.92,-500.526 "
     id="polygon4678"
     style="fill:#000000;stroke:#000000"
     transform="translate(-238.12843,849.71334)" />
  <g
     id="g5261"
     transform="translate(-259.86773,-62.641728)">
    <text
       style="font-size:10px;text-anchor:start;font-family:Monaco"
       id="text4680"
       font-size="10.00"
       y="333.5"
       x="810">:actualPrice</text>
    <text
       style="font-size:10px;text-anchor:start;font-family:Monaco"
       id="text4682"
       font-size="10.00"
       y="352.5"
       x="810">:agreedPrice</text>
    <text
       style="font-size:10px;text-anchor:start;font-family:Monaco"
       id="text4684"
       font-size="10.00"
       y="371.5"
       x="810">:contractPrice</text>
    <text
       style="font-size:10px;text-anchor:start;font-family:Monaco"
       id="text4686"
       font-size="10.00"
       y="390.5"
       x="809.99103">:documentationPrice</text>
    <text
       style="font-size:10px;text-anchor:start;font-family:Monaco"
       id="text4688"
       font-size="10.00"
       y="409.5"
       x="810">:estimatedPrice</text>
  </g>
  <text
     x="563.71558"
     y="605.65729"
     font-size="14.00"
     id="text4693"
     style="font-size:14px;text-anchor:start;font-family:Monaco">schema:ContactPoint</text>
  <polygon
     points="778,-236 949,-236 949,-236 778,-236 778,-236 "
     id="polygon4697"
     style="fill:#000000;stroke:#000000;stroke-width:1;stroke-miterlimit:4;stroke-dasharray:none;stroke-dashoffset:0"
     transform="translate(-225.18725,851.45729)" />
  <polygon
     points="777.5,-262 948.5,-262 948.5,-210 777.5,-210 777.5,-210 "
     id="polygon4699"
     style="fill:none;stroke:#000000;stroke-width:1;stroke-miterlimit:4;stroke-dasharray:none;stroke-dashoffset:0"
     transform="translate(-225.18725,851.45729)" />
  <path
     d="m 331.9662,554.73729 c 5.884,2.018 11.741,3.934 17.533,5.72 62.559,19.292 134.996,33.139 191.317,42.113"
     id="path4704"
     inkscape:connector-curvature="0"
     style="fill:none;stroke:#000000" />
  <polygon
     points="766.705,-244.428 777.282,-247.323 777.282,-247.323 777.282,-247.323 768.1,-253.319 772.342,-248.098 767.403,-248.873 767.403,-248.873 767.403,-248.873 772.342,-248.098 "
     id="polygon4706"
     style="fill:#000000;stroke:#000000"
     transform="translate(-226.5008,851.45729)" />
  <text
     x="427.24213"
     y="577.6712"
     font-size="10.00"
     id="text4708"
     style="font-size:10px;text-anchor:start;font-family:Monaco">:contact</text>
  <text
     x="561.42456"
     y="675.65729"
     font-size="14.00"
     id="text4713"
     style="font-size:14px;text-anchor:start;font-family:Monaco">foaf:Document</text>
  <polygon
     points="803,-166 803,-166 803,-166 924,-166 924,-166 "
     id="polygon4717"
     style="fill:#000000;stroke:#000000;stroke-width:1;stroke-miterlimit:4;stroke-dasharray:none;stroke-dashoffset:0"
     transform="translate(-250.18725,851.45729)" />
  <polygon
     points="802.5,-140 802.5,-140 802.5,-192 923.5,-192 923.5,-140 "
     id="polygon4719"
     style="fill:none;stroke:#000000;stroke-width:1;stroke-miterlimit:4;stroke-dasharray:none;stroke-dashoffset:0"
     transform="translate(-250.18725,851.45729)" />
  <path
     d="m 287.89001,619.61521 c 62.08151,57.60213 167.41686,76.07328 258.49072,72.94208"
     id="path4724"
     inkscape:connector-curvature="0"
     style="fill:none;stroke:#000000"
     sodipodi:nodetypes="cc" />
  <polygon
     points="802.311,-160.355 802.311,-160.355 792.115,-164.391 797.317,-160.126 792.322,-159.896 792.322,-159.896 792.322,-159.896 797.317,-160.126 792.529,-155.401 802.311,-160.355 "
     id="polygon4726"
     style="fill:#000000;stroke:#000000"
     transform="translate(-251.66208,852.66445)" />
  <g
     id="g5232"
     transform="translate(-217.14932,-49.784749)">
    <text
       style="font-size:10px;text-anchor:start;font-family:Monaco"
       id="text4728"
       font-size="10.00"
       y="683.5"
       x="617">:agreement</text>
    <text
       style="font-size:10px;text-anchor:start;font-family:Monaco"
       id="text4730"
       font-size="10.00"
       y="702.5"
       x="617">:attachment</text>
    <text
       style="font-size:10px;text-anchor:start;font-family:Monaco"
       id="text4732"
       font-size="10.00"
       y="721.5"
       x="616.99298">:specification</text>
  </g>
  <text
     x="556.61743"
     y="745.65729"
     font-size="14.00"
     id="text4737"
     style="font-size:14px;text-anchor:start;font-family:Monaco">payment:Payment</text>
  <polygon
     points="794,-96 794,-96 794,-96 932,-96 932,-96 "
     id="polygon4741"
     style="fill:#000000;stroke:#000000;stroke-width:1;stroke-miterlimit:4;stroke-dasharray:none;stroke-dashoffset:0"
     transform="translate(-241.68725,851.45729)" />
  <polygon
     points="794,-70 794,-70 794,-122 932,-122 932,-70 "
     id="polygon4743"
     style="fill:none;stroke:#000000;stroke-width:1;stroke-miterlimit:4;stroke-dasharray:none;stroke-dashoffset:0"
     transform="translate(-241.68725,851.45729)" />
  <path
     d="m 245.49795,619.4919 c 67.17666,100.21875 180.88533,140.00835 296.34439,140.57119"
     id="path4748"
     inkscape:connector-curvature="0"
     style="fill:none;stroke:#000000"
     sodipodi:nodetypes="cc" />
  <polygon
     points="793.741,-91.4752 793.741,-91.4752 783.706,-95.8961 788.742,-91.4357 783.742,-91.3962 783.742,-91.3962 783.742,-91.3962 788.742,-91.4357 783.777,-86.8964 793.741,-91.4752 "
     id="polygon4750"
     style="fill:#000000;stroke:#000000"
     transform="translate(-243.09595,851.46722)" />
  <text
     x="398.06671"
     y="733.16571"
     font-size="10.00"
     id="text4752"
     style="font-size:10px;text-anchor:start;font-family:Monaco">:subsidy</text>
  <text
     x="1060.7288"
     y="459.65729"
     font-size="14.00"
     id="text4757"
     style="font-size:14px;text-anchor:start;font-family:Monaco">gr:Offering</text>
  <polygon
     points="1345,-382 1241,-382 1241,-382 1241,-382 1345,-382 "
     id="polygon4761"
     style="fill:#000000;stroke:#000000;stroke-width:1;stroke-miterlimit:4;stroke-dasharray:none;stroke-dashoffset:0"
     transform="translate(-194.49921,851.45729)" />
  <polygon
     points="1345,-356 1241,-356 1241,-356 1241,-408 1345,-408 "
     id="polygon4763"
     style="fill:none;stroke:#000000;stroke-width:1;stroke-miterlimit:4;stroke-dasharray:none;stroke-dashoffset:0"
     transform="translate(-194.49921,851.45729)" />
  <path
     d="m 331.5862,482.09829 c 153.422,-1.481 391.499,-4.244 597.913,-8.641 24.48,-0.521 84.0702,-2.01782 107.4802,-2.73182"
     id="path4768"
     inkscape:connector-curvature="0"
     style="fill:none;stroke:#000000"
     sodipodi:nodetypes="ccc" />
  <text
     x="617.54578"
     y="474.16669"
     font-size="10.00"
     id="text4772"
     style="font-size:10px;text-anchor:start;font-family:Monaco">:item</text>
  <text
     x="559.94849"
     y="815.65729"
     font-size="14.00"
     id="text4777"
     style="font-size:14px;text-anchor:start;font-family:Monaco">schema:Place</text>
  <polygon
     points="919,-26 807,-26 807,-26 807,-26 919,-26 "
     id="polygon4781"
     style="fill:#000000;stroke:#000000;stroke-width:1;stroke-miterlimit:4;stroke-dasharray:none;stroke-dashoffset:0"
     transform="translate(-254.68725,851.45729)" />
  <polygon
     points="919,0 807,0 807,0 807,-52 919,-52 "
     id="polygon4783"
     style="fill:none;stroke:#000000;stroke-width:1;stroke-miterlimit:4;stroke-dasharray:none;stroke-dashoffset:0"
     transform="translate(-254.68725,851.45729)" />
  <path
     d="m 219.27505,619.33358 c 62.40041,142.03204 177.66803,218.65012 324.885,211.80685"
     id="path4788"
     inkscape:connector-curvature="0"
     style="fill:none;stroke:#000000"
     sodipodi:nodetypes="cc" />
  <polygon
     points="806.741,-20.9857 806.741,-20.9857 796.581,-25.1114 801.744,-20.8001 796.748,-20.6145 796.748,-20.6145 796.748,-20.6145 801.744,-20.8001 796.915,-16.1176 806.741,-20.9857 "
     id="polygon4790"
     style="fill:#000000;stroke:#000000"
     transform="translate(-256.04332,851.83799)" />
  <text
     x="378.74823"
     y="793.24274"
     font-size="10.00"
     id="text4792"
     style="font-size:10px;text-anchor:start;font-family:Monaco">:location</text>
  <text
     x="38.636982"
     y="735.11951"
     font-size="14.00"
     id="text4797"
     style="font-size:14px;text-anchor:start;font-family:Monaco">:TendersOpening</text>
  <text
     x="74.2985"
     y="759.11951"
     font-size="14.00"
     id="text4799"
     style="font-size:14px;text-anchor:start;font-family:Monaco" />
  <path
     transform="translate(9.4992,1112.9195)"
     style="fill:#000000;stroke:#000000"
     d="M 176.68767,-368 0,-368 l 0,0 0,0 z"
     id="polygon4801"
     inkscape:connector-curvature="0"
     sodipodi:nodetypes="ccccc" />
  <path
     transform="translate(9.4992,1112.9195)"
     style="fill:none;stroke:#000000"
     d="m 177.37852,-345.79968 -177.37852,0 0,0 L 0,-394 l 177.37852,0 z"
     id="polygon4803"
     inkscape:connector-curvature="0"
     sodipodi:nodetypes="cccccc" />
  <g
     id="g5208"
     transform="matrix(0,-1,1,0,-467.44362,861.08264)">
    <path
       style="fill:none;stroke:#000000"
       inkscape:connector-curvature="0"
       id="path4808"
       d="m 142.34,555 c 25.777,0 56.386,0 87.348,0" />
    <polygon
       transform="translate(4,923)"
       style="fill:#000000;stroke:#000000"
       id="polygon4810"
       points="225.748,-372.5 230.748,-368 225.748,-368 225.748,-368 225.748,-368 230.748,-368 225.748,-363.5 235.748,-368 235.748,-368 235.748,-368 " />
  </g>
  <text
     x="89.892021"
     y="673.47363"
     font-size="10.00"
     id="text4812"
     style="font-size:10px;text-anchor:start;font-family:Monaco">:contract</text>
  <path
     d="M 622.70586,418.55836 C 745.65352,397.4343 746.89228,300.05117 746.14592,253.94148"
     id="path4817"
     inkscape:connector-curvature="0"
     style="fill:none;stroke:#000000"
     sodipodi:nodetypes="cc" />
  <polygon
     points="1247.4,-604.416 1236.45,-603.79 1242.96,-602.107 1238.53,-599.799 1238.53,-599.799 1238.53,-599.799 1242.96,-602.107 1240.61,-595.807 1247.4,-604.416 1247.4,-604.416 "
     id="polygon4819"
     style="fill:#000000;stroke:#000000"
     transform="matrix(0.4746138,-0.88019415,0.88019415,0.4746138,686.19105,1633.2364)" />
  <text
     x="744.34399"
     y="305.27408"
     font-size="10.00"
     id="text4821"
     style="font-size:10px;text-anchor:start;font-family:Monaco">:bidder</text>
  <path
     d="M 622.75203,423.87635 C 749.27912,426.97127 840.6185,421.0541 954.6183,384.10866"
     id="path4826"
     inkscape:connector-curvature="0"
     style="fill:none;stroke:#000000"
     sodipodi:nodetypes="cc" />
  <polygon
     points="1226.25,-458.902 1215.34,-459.993 1221.51,-457.314 1216.77,-455.726 1216.77,-455.726 1216.77,-455.726 1221.51,-457.314 1218.2,-451.459 1226.25,-458.902 1226.25,-458.902 "
     id="polygon4828"
     style="fill:#000000;stroke:#000000"
     transform="translate(-265.41156,840.85763)" />
  <text
     x="795.31757"
     y="404.0386"
     font-size="10.00"
     id="text4830"
     style="font-size:10px;text-anchor:start;font-family:Monaco">:offeredPrice</text>
  <path
     d="m 622.35868,429.23826 c 124.35453,29.31685 288.43802,42.0085 413.62522,41.54203"
     id="path4835"
     inkscape:connector-curvature="0"
     style="fill:none;stroke:#000000"
     sodipodi:nodetypes="cc" />
  <polygon
     points="1240.93,-380.758 1240.93,-380.758 1230.89,-385.178 1235.93,-380.718 1230.93,-380.679 1230.93,-380.679 1230.93,-380.679 1235.93,-380.718 1230.96,-376.179 1240.93,-380.758 "
     id="polygon4837"
     style="fill:#000000;stroke:#000000"
     transform="translate(-196.13525,851.45729)" />
  <text
     x="829.53217"
     y="457.71979"
     font-size="10.00"
     id="text4839"
     style="font-size:10px;text-anchor:start;font-family:Monaco">:item</text>
  <text
     x="739.69427"
     y="132.6573"
     font-size="14.00"
     id="text4844"
     style="font-size:14px;text-anchor:start;font-family:Monaco">:CriterionWeighting</text>
  <text
     x="711.77704"
     y="153.45729"
     font-size="10.00"
     id="text4846"
     style="font-size:10px;text-anchor:start;font-family:Monaco">:criterionWeight</text>
  <text
     x="813.77704"
     y="153.45729"
     font-size="10.00"
     id="text4848"
     style="font-size:10px;text-anchor:start;fill:#696969;font-family:Monaco">pcdt:percentage</text>
  <polygon
     points="1192,-709 1192,-709 1192,-709 1394,-709 1394,-709 "
     id="polygon4850"
     style="fill:#000000;stroke:#000000"
     transform="translate(-485.21294,851.45729)" />
  <polygon
     points="1192,-688.5 1192,-688.5 1192,-735.5 1394,-735.5 1394,-688.5 "
     id="polygon4852"
     style="fill:none;stroke:#000000"
     transform="translate(-485.21294,851.45729)" />
  <path
     d="m 607.27647,139.45729 c 63.709,0 25.3506,0 89.1006,0"
     id="path4857"
     inkscape:connector-curvature="0"
     style="fill:none;stroke:#000000"
     sodipodi:nodetypes="cc" />
  <polygon
     points="1191.67,-712 1191.67,-712 1181.67,-716.5 1186.67,-712 1181.67,-712 1181.67,-712 1181.67,-712 1186.67,-712 1181.67,-707.5 1191.67,-712 "
     id="polygon4859"
     style="fill:#000000;stroke:#000000"
     transform="translate(-485.21294,851.45729)" />
  <text
     x="614.67493"
     y="130.95729"
     font-size="10.00"
     id="text4861"
     style="font-size:10px;text-anchor:start;font-family:Monaco">:awardCriterion</text>
  <path
     d="m 908.96764,139.45729 c 51.85,0 75.16776,0 120.85776,0"
     id="path4866"
     inkscape:connector-curvature="0"
     style="fill:none;stroke:#000000"
     sodipodi:nodetypes="cc" />
  <polygon
     points="1563.59,-712 1563.59,-712 1563.59,-712 1553.59,-716.5 1558.59,-712 1553.59,-712 1553.59,-712 1553.59,-712 1558.59,-712 1553.59,-707.5 "
     id="polygon4868"
     style="fill:#000000;stroke:#000000"
     transform="translate(-527.14707,851.45729)" />
  <text
     x="922.74615"
     y="132.29947"
     font-size="10.00"
     id="text4870"
     style="font-size:10px;text-anchor:start;font-family:Monaco">:weightedCriterion</text>
  <text
     x="933.57257"
     y="535.65729"
     font-size="14.00"
     id="text4875"
     style="font-size:14px;text-anchor:start;font-family:Monaco">gr:QuantitativeValueInteger</text>
  <polygon
     points="1412,-306 1174,-306 1174,-306 1174,-306 1412,-306 "
     id="polygon4879"
     style="fill:#000000;stroke:#000000;stroke-width:1;stroke-miterlimit:4;stroke-dasharray:none;stroke-dashoffset:0"
     transform="translate(-261.49921,851.45729)" />
  <polygon
     points="1412,-280 1174,-280 1174,-280 1174,-332 1412,-332 "
     id="polygon4881"
     style="fill:none;stroke:#000000;stroke-width:1;stroke-miterlimit:4;stroke-dasharray:none;stroke-dashoffset:0"
     transform="translate(-261.49921,851.45729)" />
  <path
     sodipodi:nodetypes="cc"
     d="m 722.0582,545.45729 c 61.301,0 110.8671,0 180.4471,0"
     id="path4886"
     inkscape:connector-curvature="0"
     style="fill:none;stroke:#000000" />
  <polygon
     points="1173.59,-306 1173.59,-306 1173.59,-306 1163.59,-310.5 1168.59,-306 1163.59,-306 1163.59,-306 1163.59,-306 1168.59,-306 1163.59,-301.5 "
     id="polygon4888"
     style="fill:#000000;stroke:#000000"
     transform="translate(-262.0637,851.45729)" />
  <text
     x="736.65228"
     y="536.95728"
     font-size="10.00"
     id="text4890"
     style="font-size:10px;text-anchor:start;font-family:Monaco">:expectedNumberOfOperators</text>
  <path
     d="m 860.9747,233.20731 c 75.3628,-6.66177 201.0828,-10.25074 197.2941,-54.2954"
     id="path4895"
     inkscape:connector-curvature="0"
     style="fill:none;stroke:#000000"
     sodipodi:nodetypes="cc" />
  <polygon
     points="1581.75,-685.791 1570.85,-684.633 1577.43,-683.269 1573.12,-680.748 1573.12,-680.748 1573.12,-680.748 1577.43,-683.269 1575.39,-676.862 1581.75,-685.791 1581.75,-685.791 "
     id="polygon4897"
     style="fill:#000000;stroke:#000000"
     transform="matrix(0.499985,-0.86603406,0.86603406,0.499985,861.3685,1882.4136)" />
  <g
     id="g5295"
     transform="translate(-527.24384,-31.511414)">
    <text
       style="font-size:10px;text-anchor:start;font-family:Monaco"
       id="text4899"
       font-size="10.00"
       y="227"
       x="1449.99">:authorityKind</text>
    <text
       style="font-size:10px;text-anchor:start;font-family:Monaco"
       id="text4901"
       font-size="10.00"
       y="246"
       x="1450">:mainActivity</text>
  </g>
  <text
     x="803.50079"
     y="670.95728"
     font-size="10.00"
     id="text4908"
     style="font-size:10px;text-anchor:start;font-family:Monaco" />
  <g
     id="g4078"
     transform="matrix(1.2872766,0,0,1.2872766,-240.70455,-219.80517)">
    <text
       style="font-size:14px;text-anchor:start;font-family:Open Sans"
       id="text4906"
       font-size="14.00"
       y="655.18237"
       x="875.08038">Namespace prefixes</text>
    <text
       sodipodi:linespacing="125%"
       style="font-size:8.41757965px;font-style:normal;font-variant:normal;font-weight:normal;font-stretch:normal;text-align:start;line-height:125%;writing-mode:lr-tb;text-anchor:start;font-family:Open Sans;-inkscape-font-specification:Open Sans"
       id="text4910"
       font-size="10.00"
       y="675.69965"
       x="850.34906">http://purl.org/procurement/public-contracts#</text>
    <text
       sodipodi:linespacing="125%"
       style="font-size:8.41757965px;font-style:normal;font-variant:normal;font-weight:normal;font-stretch:normal;text-align:start;line-height:125%;writing-mode:lr-tb;text-anchor:start;font-family:Open Sans;-inkscape-font-specification:Open Sans"
       id="text4916"
       font-size="10.00"
       y="725.27698"
       x="827.44067">foaf</text>
    <text
       sodipodi:linespacing="125%"
       style="font-size:8.41757965px;font-style:normal;font-variant:normal;font-weight:normal;font-stretch:normal;text-align:start;line-height:125%;writing-mode:lr-tb;text-anchor:start;font-family:Open Sans;-inkscape-font-specification:Open Sans"
       id="text4918"
       font-size="10.00"
       y="725.27698"
       x="850.34906">http://xmlns.com/foaf/0.1/</text>
    <text
       sodipodi:linespacing="125%"
       style="font-size:8.41757965px;font-style:normal;font-variant:normal;font-weight:normal;font-stretch:normal;text-align:start;line-height:125%;writing-mode:lr-tb;text-anchor:start;font-family:Open Sans;-inkscape-font-specification:Open Sans"
       id="text4920"
       font-size="10.00"
       y="741.80273"
       x="835.34448">gr</text>
    <text
       sodipodi:linespacing="125%"
       style="font-size:8.41757965px;font-style:normal;font-variant:normal;font-weight:normal;font-stretch:normal;text-align:start;line-height:125%;writing-mode:lr-tb;text-anchor:start;font-family:Open Sans;-inkscape-font-specification:Open Sans"
       id="text4922"
       font-size="10.00"
       y="741.80273"
       x="850.34906">http://purl.org/goodrelations/v1#</text>
    <text
       sodipodi:linespacing="125%"
       style="font-size:8.41757965px;font-style:normal;font-variant:normal;font-weight:normal;font-stretch:normal;text-align:start;line-height:125%;writing-mode:lr-tb;text-anchor:start;font-family:Open Sans;-inkscape-font-specification:Open Sans"
       id="text4924"
       font-size="10.00"
       y="758.32849"
       x="808.69019">payment</text>
    <text
       sodipodi:linespacing="125%"
       style="font-size:8.41757965px;font-style:normal;font-variant:normal;font-weight:normal;font-stretch:normal;text-align:start;line-height:125%;writing-mode:lr-tb;text-anchor:start;font-family:Open Sans;-inkscape-font-specification:Open Sans"
       id="text4926"
       font-size="10.00"
       y="758.32849"
       x="850.34906">http://reference.data.gov.uk/def/payment#</text>
    <text
       sodipodi:linespacing="125%"
       style="font-size:8.41757965px;font-style:normal;font-variant:normal;font-weight:normal;font-stretch:normal;text-align:start;line-height:125%;writing-mode:lr-tb;text-anchor:start;font-family:Open Sans;-inkscape-font-specification:Open Sans"
       id="text4928"
       font-size="10.00"
       y="774.85431"
       x="826.15009">pcdt</text>
    <text
       sodipodi:linespacing="125%"
       style="font-size:8.41757965px;font-style:normal;font-variant:normal;font-weight:normal;font-stretch:normal;text-align:start;line-height:125%;writing-mode:lr-tb;text-anchor:start;font-family:Open Sans;-inkscape-font-specification:Open Sans"
       id="text4930"
       font-size="10.00"
       y="774.85431"
       x="850.3175">http://purl.org/procurement/public-contracts-datatypes#</text>
    <text
       sodipodi:linespacing="125%"
       style="font-size:8.41757965px;font-style:normal;font-variant:normal;font-weight:normal;font-stretch:normal;text-align:start;line-height:125%;writing-mode:lr-tb;text-anchor:start;font-family:Open Sans;-inkscape-font-specification:Open Sans"
       id="text4936"
       font-size="10.00"
       y="791.38007"
       x="813.55249">schema</text>
    <text
       sodipodi:linespacing="125%"
       style="font-size:8.41757965px;font-style:normal;font-variant:normal;font-weight:normal;font-stretch:normal;text-align:start;line-height:125%;writing-mode:lr-tb;text-anchor:start;font-family:Open Sans;-inkscape-font-specification:Open Sans"
       id="text4938"
       font-size="10.00"
       y="791.38007"
       x="850.34906">http://schema.org/</text>
    <text
       sodipodi:linespacing="125%"
       style="font-size:8.41757965px;font-style:normal;font-variant:normal;font-weight:normal;font-stretch:normal;text-align:start;line-height:125%;writing-mode:lr-tb;text-anchor:start;font-family:Open Sans;-inkscape-font-specification:Open Sans"
       id="text4940"
       font-size="10.00"
       y="807.90582"
       x="826.30212">skos</text>
    <text
       sodipodi:linespacing="125%"
       style="font-size:8.41757965px;font-style:normal;font-variant:normal;font-weight:normal;font-stretch:normal;text-align:start;line-height:125%;writing-mode:lr-tb;text-anchor:start;font-family:Open Sans;-inkscape-font-specification:Open Sans"
       id="text4942"
       font-size="10.00"
       y="807.90582"
       x="850.34906">http://www.w3.org/2004/02/skos/core#</text>
    <text
       sodipodi:linespacing="125%"
       style="font-size:8.41757965px;font-style:normal;font-variant:normal;font-weight:normal;font-stretch:normal;text-align:start;line-height:125%;writing-mode:lr-tb;text-anchor:start;font-family:Open Sans;-inkscape-font-specification:Open Sans"
       id="text4944"
       font-size="10.00"
       y="824.43164"
       x="830.42871">xsd</text>
    <text
       sodipodi:linespacing="125%"
       style="font-size:8.41757965px;font-style:normal;font-variant:normal;font-weight:normal;font-stretch:normal;text-align:start;line-height:125%;writing-mode:lr-tb;text-anchor:start;font-family:Open Sans;-inkscape-font-specification:Open Sans"
       id="text4946"
       font-size="10.00"
       y="824.43164"
       x="850.34906">http://www.w3.org/2001/XMLSchema#</text>
    <path
       sodipodi:nodetypes="ccccc"
       inkscape:connector-curvature="0"
       id="polygon4948"
       d="m 1694,-794 309.984,0 0,0 -309.984,0 z"
       style="fill:#000000;stroke:#000000"
       transform="matrix(0.89567446,0,0,1,-714.56922,1458.3824)" />
    <path
       transform="matrix(0.89658299,0,0,0.7993063,-716.10827,1293.5125)"
       sodipodi:nodetypes="cccccc"
       inkscape:connector-curvature="0"
       id="polygon4950"
       d="m 1694,-821.5 310.063,0 0,244.30646 -310.063,0 0,0 z"
       style="fill:none;stroke:#000000" />
    <text
       sodipodi:linespacing="125%"
       x="811.52203"
       y="708.75122"
       font-size="10.00"
       id="text4015"
       style="font-size:8.41757965px;font-style:normal;font-variant:normal;font-weight:normal;font-stretch:normal;text-align:start;line-height:125%;writing-mode:lr-tb;text-anchor:start;font-family:Open Sans;-inkscape-font-specification:Open Sans">dcterms</text>
    <text
       sodipodi:linespacing="125%"
       x="850.34906"
       y="708.75122"
       font-size="10.00"
       id="text4017"
       style="font-size:8.41757965px;font-style:normal;font-variant:normal;font-weight:normal;font-stretch:normal;text-align:start;line-height:125%;writing-mode:lr-tb;text-anchor:start;font-family:Open Sans;-inkscape-font-specification:Open Sans">http://purl.org/dc/terms/</text>
    <text
       sodipodi:linespacing="125%"
       style="font-size:8.41757965px;font-style:normal;font-variant:normal;font-weight:normal;font-stretch:normal;text-align:start;line-height:125%;writing-mode:lr-tb;text-anchor:start;font-family:Open Sans;-inkscape-font-specification:Open Sans"
       id="text4019"
       font-size="10.00"
       y="692.2254"
       x="821.97827">adms</text>
    <text
       sodipodi:linespacing="125%"
       style="font-size:8.41757965px;font-style:normal;font-variant:normal;font-weight:normal;font-stretch:normal;text-align:start;line-height:125%;writing-mode:lr-tb;text-anchor:start;font-family:Open Sans;-inkscape-font-specification:Open Sans"
       id="text4021"
       font-size="10.00"
       y="692.2254"
       x="850.34906">http://www.w3.org/ns/adms#</text>
  </g>
  <text
     style="font-size:10px;text-anchor:start;font-family:Monaco"
     id="text4103"
     font-size="10.00"
     y="593.54999"
     x="14.4992">dcterms:description</text>
  <text
     style="font-size:10px;text-anchor:start;fill:#696969;font-family:Monaco"
     id="text4105"
     font-size="10.00"
     y="593.54999"
     x="274.51459">xsd:string</text>
  <text
     x="14.4992"
     y="611.81238"
     font-size="10.00"
     id="text4107"
     style="font-size:10px;text-anchor:start;font-family:Monaco">dcterms:title</text>
  <text
     x="274.51459"
     y="611.81238"
     font-size="10.00"
     id="text4109"
     style="font-size:10px;text-anchor:start;fill:#696969;font-family:Monaco">xsd:string</text>
  <text
     style="font-size:10px;text-anchor:start;fill:#696969;font-family:Monaco"
     id="text4116"
     font-size="10.00"
     y="759.43628"
     x="114.22578">xsd:dateTime</text>
  <text
     style="font-size:10px;text-anchor:start;font-family:Monaco"
     id="text4118"
     font-size="10.00"
     y="759.43628"
     x="13.681222">dcterms:date</text>
  <path
     sodipodi:nodetypes="cc"
     style="fill:none;stroke:#000000"
     inkscape:connector-curvature="0"
     id="path4125"
     d="M 86.678667,767.19286 C 86.119643,851.51208 396.94308,837.9837 544.16005,831.14043" />
  <text
     style="font-size:10px;text-anchor:start;font-family:Monaco"
     id="text4127"
     font-size="10.00"
     y="826.47229"
     x="241.26921">:location</text>
  <text
     style="font-size:14px;text-anchor:start;font-family:Monaco"
     id="text4135"
     font-size="14.00"
     y="153.6573"
     x="138.70934" />
  <g
     id="g4151"
     transform="translate(353.14514,70.046322)">
    <path
       transform="translate(-720.08967,851.45729)"
       sodipodi:nodetypes="cccccc"
       inkscape:connector-curvature="0"
       id="polygon4137"
       d="m 752,-712 0,0 0,0 124.04798,0 0,0 z"
       style="fill:#000000;stroke:#000000" />
    <g
       id="g4147">
      <text
         style="font-size:14px;text-anchor:start;font-family:Monaco"
         id="text4133"
         font-size="14.00"
         y="129.6573"
         x="40.617985">adms:Identifier</text>
      <path
         transform="translate(-720.08967,851.45729)"
         style="fill:none;stroke:#000000"
         d="m 752,-686 0,0 0,-52 124.47293,0 0,52 z"
         id="polygon4139"
         inkscape:connector-curvature="0"
         sodipodi:nodetypes="cccccc" />
    </g>
  </g>
  <path
     sodipodi:nodetypes="cc"
     style="fill:none;stroke:#000000"
     inkscape:connector-curvature="0"
     id="path4157"
     d="m 284.4312,383.81629 c 0,-56.69082 162.85517,-106.579 162.85517,-136.79467" />
  <text
     style="font-size:10px;text-anchor:start;font-family:Monaco"
     id="text4159"
     font-size="10.00"
     y="308.10391"
     x="277.5657">adms:identifier</text>
  <polygon
     transform="matrix(0.4746138,-0.88019415,0.88019415,0.4746138,387.40764,1622.1844)"
     style="fill:#000000;stroke:#000000"
     id="polygon4161"
     points="1238.53,-599.799 1238.53,-599.799 1238.53,-599.799 1242.96,-602.107 1240.61,-595.807 1247.4,-604.416 1247.4,-604.416 1247.4,-604.416 1236.45,-603.79 1242.96,-602.107 " />
  <path
     style="fill:none;stroke:#000000"
     inkscape:connector-curvature="0"
     id="path4163"
     d="m 520.24439,185.70364 c 58.79174,0 226.37148,-23.17135 226.04253,14.47193"
     sodipodi:nodetypes="cc" />
  <polygon
     transform="matrix(-1,0,0,1,1727.1799,815.80428)"
     style="fill:#000000;stroke:#000000"
     id="polygon4165"
     points="1210.94,-630.063 1205.94,-630.155 1205.94,-630.155 1205.94,-630.155 1210.94,-630.063 1205.86,-625.656 1215.94,-629.97 1215.94,-629.97 1215.94,-629.97 1206.02,-634.654 " />
  <text
     x="621.87378"
     y="172.25871"
     font-size="10.00"
     id="text4167"
     style="font-size:10px;text-anchor:start;font-family:Monaco">adms:identifier</text>
</svg>
