<?xml version="1.0" encoding="UTF-8" standalone="no"?>
<!-- Created with Inkscape (http://www.inkscape.org/) -->

<svg
   xmlns:dc="http://purl.org/dc/elements/1.1/"
   xmlns:cc="http://creativecommons.org/ns#"
   xmlns:rdf="http://www.w3.org/1999/02/22-rdf-syntax-ns#"
   xmlns:svg="http://www.w3.org/2000/svg"
   xmlns="http://www.w3.org/2000/svg"
   xmlns:sodipodi="http://sodipodi.sourceforge.net/DTD/sodipodi-0.dtd"
   xmlns:inkscape="http://www.inkscape.org/namespaces/inkscape"
   width="500"
   height="400"
   id="svg4221"
   version="1.1"
   inkscape:version="0.48.4 r9943 custom"
   sodipodi:docname="query_expansion_broader.svg">
  <defs
     id="defs4223" />
  <sodipodi:namedview
     id="base"
     pagecolor="#ffffff"
     bordercolor="#666666"
     borderopacity="1.0"
     inkscape:pageopacity="0.0"
     inkscape:pageshadow="2"
     inkscape:zoom="1.2806252"
     inkscape:cx="255.27161"
     inkscape:cy="240.01633"
     inkscape:document-units="px"
     inkscape:current-layer="layer1"
     showgrid="false"
     inkscape:window-width="1280"
     inkscape:window-height="751"
     inkscape:window-x="0"
     inkscape:window-y="23"
     inkscape:window-maximized="0" />
  <metadata
     id="metadata4226">
    <rdf:RDF>
      <cc:Work
         rdf:about="">
        <dc:format>image/svg+xml</dc:format>
        <dc:type
           rdf:resource="http://purl.org/dc/dcmitype/StillImage" />
        <dc:title></dc:title>
      </cc:Work>
    </rdf:RDF>
  </metadata>
  <g
     inkscape:label="Layer 1"
     inkscape:groupmode="layer"
     id="layer1"
     transform="translate(0,-652.36218)">
    <path
       sodipodi:type="arc"
       style="fill:#ffffff;fill-opacity:1;stroke:#000000;stroke-width:4;stroke-linecap:square;stroke-linejoin:bevel;stroke-miterlimit:4;stroke-opacity:1;stroke-dasharray:none;stroke-dashoffset:0"
       id="path4336"
       sodipodi:cx="288.58911"
       sodipodi:cy="321.26974"
       sodipodi:rx="8.9783278"
       sodipodi:ry="8.9783278"
       d="m 297.56744,321.26974 a 8.9783278,8.9783278 0 1 1 -17.95666,0 8.9783278,8.9783278 0 1 1 17.95666,0 z"
       transform="matrix(0.8394879,0,0,0.8394879,30.60899,414.86773)" />
    <path
       d="m 297.56744,321.26974 a 8.9783278,8.9783278 0 1 1 -17.95666,0 8.9783278,8.9783278 0 1 1 17.95666,0 z"
       sodipodi:ry="8.9783278"
       sodipodi:rx="8.9783278"
       sodipodi:cy="321.26974"
       sodipodi:cx="288.58911"
       id="path5106"
       style="fill:#ff6600;fill-opacity:1;stroke:#000000;stroke-width:4;stroke-linecap:square;stroke-linejoin:bevel;stroke-miterlimit:4;stroke-opacity:1;stroke-dasharray:none;stroke-dashoffset:0"
       sodipodi:type="arc"
       transform="matrix(0.8394879,0,0,0.8394879,30.60899,481.9847)" />
    <path
       transform="matrix(0.8394879,0,0,0.8394879,30.60899,549.10166)"
       sodipodi:type="arc"
       style="fill:#ff6600;fill-opacity:1;stroke:#000000;stroke-width:4;stroke-linecap:square;stroke-linejoin:bevel;stroke-miterlimit:4;stroke-opacity:1;stroke-dasharray:none;stroke-dashoffset:0"
       id="path5108"
       sodipodi:cx="288.58911"
       sodipodi:cy="321.26974"
       sodipodi:rx="8.9783278"
       sodipodi:ry="8.9783278"
       d="m 297.56744,321.26974 a 8.9783278,8.9783278 0 1 1 -17.95666,0 8.9783278,8.9783278 0 1 1 17.95666,0 z" />
    <path
       d="m 297.56744,321.26974 a 8.9783278,8.9783278 0 1 1 -17.95666,0 8.9783278,8.9783278 0 1 1 17.95666,0 z"
       sodipodi:ry="8.9783278"
       sodipodi:rx="8.9783278"
       sodipodi:cy="321.26974"
       sodipodi:cx="288.58911"
       id="path5110"
       style="fill:#000000;fill-opacity:1;stroke:#000000;stroke-width:4;stroke-linecap:square;stroke-linejoin:bevel;stroke-miterlimit:4;stroke-opacity:1;stroke-dasharray:none;stroke-dashoffset:0"
       sodipodi:type="arc"
       transform="matrix(0.8394879,0,0,0.8394879,30.60899,616.2186)" />
    <path
       style="fill:none;stroke:#000000;stroke-width:1.67897582;stroke-linecap:butt;stroke-linejoin:miter;stroke-miterlimit:4;stroke-opacity:1;stroke-dasharray:none"
       d="m 272.87606,691.88033 0,51.917"
       id="path5112"
       inkscape:connector-curvature="0"
       sodipodi:nodetypes="cc" />
    <path
       sodipodi:nodetypes="cc"
       inkscape:connector-curvature="0"
       id="path5133"
       d="m 272.87606,759.5651 0,51.917"
       style="fill:none;stroke:#000000;stroke-width:1.67897582;stroke-linecap:butt;stroke-linejoin:miter;stroke-miterlimit:4;stroke-opacity:1;stroke-dasharray:none" />
    <path
       style="fill:none;stroke:#000000;stroke-width:1.67897582;stroke-linecap:butt;stroke-linejoin:miter;stroke-miterlimit:4;stroke-opacity:1;stroke-dasharray:none"
       d="m 272.87606,827.24987 0,51.917"
       id="path5135"
       inkscape:connector-curvature="0"
       sodipodi:nodetypes="cc" />
    <path
       transform="matrix(0.8394879,0,0,0.8394879,99.493855,616.2186)"
       sodipodi:type="arc"
       style="fill:#ffffff;fill-opacity:1;stroke:#000000;stroke-width:4;stroke-linecap:square;stroke-linejoin:bevel;stroke-miterlimit:4;stroke-opacity:1;stroke-dasharray:none;stroke-dashoffset:0"
       id="path5137"
       sodipodi:cx="288.58911"
       sodipodi:cy="321.26974"
       sodipodi:rx="8.9783278"
       sodipodi:ry="8.9783278"
       d="m 297.56744,321.26974 a 8.9783278,8.9783278 0 1 1 -17.95666,0 8.9783278,8.9783278 0 1 1 17.95666,0 z" />
    <path
       d="m 297.56744,321.26974 a 8.9783278,8.9783278 0 1 1 -17.95666,0 8.9783278,8.9783278 0 1 1 17.95666,0 z"
       sodipodi:ry="8.9783278"
       sodipodi:rx="8.9783278"
       sodipodi:cy="321.26974"
       sodipodi:cx="288.58911"
       id="path5139"
       style="fill:#ffffff;fill-opacity:1;stroke:#000000;stroke-width:4;stroke-linecap:square;stroke-linejoin:bevel;stroke-miterlimit:4;stroke-opacity:1;stroke-dasharray:none;stroke-dashoffset:0"
       sodipodi:type="arc"
       transform="matrix(0.8394879,0,0,0.8394879,99.493855,683.33556)" />
    <path
       transform="matrix(0.8394879,0,0,0.8394879,99.493855,750.4525)"
       sodipodi:type="arc"
       style="fill:#ffffff;fill-opacity:1;stroke:#000000;stroke-width:4;stroke-linecap:square;stroke-linejoin:bevel;stroke-miterlimit:4;stroke-opacity:1;stroke-dasharray:none;stroke-dashoffset:0"
       id="path5141"
       sodipodi:cx="288.58911"
       sodipodi:cy="321.26974"
       sodipodi:rx="8.9783278"
       sodipodi:ry="8.9783278"
       d="m 297.56744,321.26974 a 8.9783278,8.9783278 0 1 1 -17.95666,0 8.9783278,8.9783278 0 1 1 17.95666,0 z" />
    <g
       transform="matrix(0.8394879,0,0,0.8394879,-38.275862,549.10166)"
       id="g5150">
      <path
         transform="translate(0,79.949864)"
         sodipodi:type="arc"
         style="fill:#ffffff;fill-opacity:1;stroke:#000000;stroke-width:4;stroke-linecap:square;stroke-linejoin:bevel;stroke-miterlimit:4;stroke-opacity:1;stroke-dasharray:none;stroke-dashoffset:0"
         id="path5152"
         sodipodi:cx="288.58911"
         sodipodi:cy="321.26974"
         sodipodi:rx="8.9783278"
         sodipodi:ry="8.9783278"
         d="m 297.56744,321.26974 c 0,4.9586 -4.01974,8.97833 -8.97833,8.97833 -4.95859,0 -8.97833,-4.01973 -8.97833,-8.97833 0,-4.95859 4.01974,-8.97832 8.97833,-8.97832 4.95859,0 8.97833,4.01973 8.97833,8.97832 z" />
      <path
         d="m 297.56744,321.26974 c 0,4.9586 -4.01974,8.97833 -8.97833,8.97833 -4.95859,0 -8.97833,-4.01973 -8.97833,-8.97833 0,-4.95859 4.01974,-8.97832 8.97833,-8.97832 4.95859,0 8.97833,4.01973 8.97833,8.97832 z"
         sodipodi:ry="8.9783278"
         sodipodi:rx="8.9783278"
         sodipodi:cy="321.26974"
         sodipodi:cx="288.58911"
         id="path5154"
         style="fill:#ffffff;fill-opacity:1;stroke:#000000;stroke-width:4;stroke-linecap:square;stroke-linejoin:bevel;stroke-miterlimit:4;stroke-opacity:1;stroke-dasharray:none;stroke-dashoffset:0"
         sodipodi:type="arc"
         transform="translate(0,159.89975)" />
      <path
         transform="translate(0,239.84961)"
         sodipodi:type="arc"
         style="fill:#ffffff;fill-opacity:1;stroke:#000000;stroke-width:4;stroke-linecap:square;stroke-linejoin:bevel;stroke-miterlimit:4;stroke-opacity:1;stroke-dasharray:none;stroke-dashoffset:0"
         id="path5156"
         sodipodi:cx="288.58911"
         sodipodi:cy="321.26974"
         sodipodi:rx="8.9783278"
         sodipodi:ry="8.9783278"
         d="m 297.56744,321.26974 c 0,4.9586 -4.01974,8.97833 -8.97833,8.97833 -4.95859,0 -8.97833,-4.01973 -8.97833,-8.97833 0,-4.95859 4.01974,-8.97832 8.97833,-8.97832 4.95859,0 8.97833,4.01973 8.97833,8.97832 z" />
    </g>
    <path
       style="fill:none;stroke:#000000;stroke-width:1.67897582;stroke-linecap:butt;stroke-linejoin:miter;stroke-miterlimit:4;stroke-opacity:1;stroke-dasharray:none"
       d="m 264.14546,817.7992 c -44.80698,-0.0889 -59.81233,19.47647 -60.00423,59.5242"
       id="path5167"
       inkscape:connector-curvature="0"
       sodipodi:nodetypes="cc" />
    <path
       sodipodi:nodetypes="cc"
       inkscape:connector-curvature="0"
       id="path5169"
       d="m 281.90671,817.7992 c 44.80698,-0.0889 59.81233,19.47647 60.00423,59.5242"
       style="fill:none;stroke:#000000;stroke-width:1.67897582;stroke-linecap:butt;stroke-linejoin:miter;stroke-miterlimit:4;stroke-opacity:1;stroke-dasharray:none" />
    <path
       d="m 297.56744,321.26974 a 8.9783278,8.9783278 0 1 1 -17.95666,0 8.9783278,8.9783278 0 1 1 17.95666,0 z"
       sodipodi:ry="8.9783278"
       sodipodi:rx="8.9783278"
       sodipodi:cy="321.26974"
       sodipodi:cx="288.58911"
       id="path5174"
       style="fill:#ffffff;fill-opacity:1;stroke:#000000;stroke-width:4;stroke-linecap:square;stroke-linejoin:bevel;stroke-miterlimit:4;stroke-opacity:1;stroke-dasharray:none;stroke-dashoffset:0"
       sodipodi:type="arc"
       transform="matrix(0.8394879,0,0,0.8394879,167.958,616.2186)" />
    <path
       transform="matrix(0.8394879,0,0,0.8394879,236.36845,616.2186)"
       sodipodi:type="arc"
       style="fill:#ffffff;fill-opacity:1;stroke:#000000;stroke-width:4;stroke-linecap:square;stroke-linejoin:bevel;stroke-miterlimit:4;stroke-opacity:1;stroke-dasharray:none;stroke-dashoffset:0"
       id="path5176"
       sodipodi:cx="288.58911"
       sodipodi:cy="321.26974"
       sodipodi:rx="8.9783278"
       sodipodi:ry="8.9783278"
       d="m 297.56744,321.26974 a 8.9783278,8.9783278 0 1 1 -17.95666,0 8.9783278,8.9783278 0 1 1 17.95666,0 z" />
    <path
       d="m 297.56744,321.26974 a 8.9783278,8.9783278 0 1 1 -17.95666,0 8.9783278,8.9783278 0 1 1 17.95666,0 z"
       sodipodi:ry="8.9783278"
       sodipodi:rx="8.9783278"
       sodipodi:cy="321.26974"
       sodipodi:cx="288.58911"
       id="path5180"
       style="fill:#ffffff;fill-opacity:1;stroke:#000000;stroke-width:4;stroke-linecap:square;stroke-linejoin:bevel;stroke-miterlimit:4;stroke-opacity:1;stroke-dasharray:none;stroke-dashoffset:0"
       sodipodi:type="arc"
       transform="matrix(0.8394879,0,0,0.8394879,30.60899,750.4525)" />
    <path
       transform="matrix(0.8394879,0,0,0.8394879,-106.89576,750.4525)"
       sodipodi:type="arc"
       style="fill:#ffffff;fill-opacity:1;stroke:#000000;stroke-width:4;stroke-linecap:square;stroke-linejoin:bevel;stroke-miterlimit:4;stroke-opacity:1;stroke-dasharray:none;stroke-dashoffset:0"
       id="path5182"
       sodipodi:cx="288.58911"
       sodipodi:cy="321.26974"
       sodipodi:rx="8.9783278"
       sodipodi:ry="8.9783278"
       d="m 297.56744,321.26974 a 8.9783278,8.9783278 0 1 1 -17.95666,0 8.9783278,8.9783278 0 1 1 17.95666,0 z" />
    <path
       style="fill:none;stroke:#000000;stroke-width:1.67897582;stroke-linecap:butt;stroke-linejoin:miter;stroke-miterlimit:4;stroke-opacity:1;stroke-dasharray:none"
       d="m 203.99121,959.46232 0,51.91698"
       id="path5193"
       inkscape:connector-curvature="0"
       sodipodi:nodetypes="cc" />
    <path
       sodipodi:nodetypes="cc"
       inkscape:connector-curvature="0"
       id="path5195"
       d="m 341.76093,961.87715 0,51.91705"
       style="fill:none;stroke:#000000;stroke-width:1.67897582;stroke-linecap:butt;stroke-linejoin:miter;stroke-miterlimit:4;stroke-opacity:1;stroke-dasharray:none" />
    <path
       style="fill:none;stroke:#000000;stroke-width:1.67897582;stroke-linecap:butt;stroke-linejoin:miter;stroke-miterlimit:4;stroke-opacity:1;stroke-dasharray:none"
       d="m 213.08379,951.82278 c 44.80698,-0.0889 59.81233,19.47647 60.00423,59.52422"
       id="path5199"
       inkscape:connector-curvature="0"
       sodipodi:nodetypes="cc" />
    <path
       sodipodi:nodetypes="cc"
       inkscape:connector-curvature="0"
       id="path5201"
       d="m 195.32254,951.82278 c -44.80698,-0.0889 -59.81233,19.47647 -60.00423,59.52422"
       style="fill:none;stroke:#000000;stroke-width:1.67897582;stroke-linecap:butt;stroke-linejoin:miter;stroke-miterlimit:4;stroke-opacity:1;stroke-dasharray:none" />
    <path
       style="fill:none;stroke:#000000;stroke-width:1.67897582;stroke-linecap:butt;stroke-linejoin:miter;stroke-miterlimit:4;stroke-opacity:1;stroke-dasharray:none"
       d="m 281.90671,817.7992 c 105.79581,-0.20991 128.04022,21.28755 128.22344,59.5242"
       id="path5203"
       inkscape:connector-curvature="0"
       sodipodi:nodetypes="cc" />
    <path
       sodipodi:nodetypes="cc"
       inkscape:connector-curvature="0"
       id="path5205"
       d="m 281.90671,817.7992 c 155.90473,-0.30933 197.36849,0.76189 197.65008,59.5242"
       style="fill:none;stroke:#000000;stroke-width:1.67897582;stroke-linecap:butt;stroke-linejoin:miter;stroke-miterlimit:4;stroke-opacity:1;stroke-dasharray:none" />
    <text
       xml:space="preserve"
       style="font-size:20px;font-style:normal;font-variant:normal;font-weight:normal;font-stretch:normal;text-align:start;line-height:125%;letter-spacing:0px;word-spacing:0px;writing-mode:lr;text-anchor:start;fill:#000000;fill-opacity:1;stroke:none;font-family:Open Sans;-inkscape-font-specification:Open Sans"
       x="55.512177"
       y="690.07751"
       id="text5265"
       sodipodi:linespacing="125%"><tspan
         sodipodi:role="line"
         id="tspan5267"
         x="55.512177"
         y="690.07751">explicit concept</tspan></text>
    <path
       transform="matrix(0.8394879,0,0,0.8394879,-202.87072,415.20455)"
       d="m 297.56744,321.26974 a 8.9783278,8.9783278 0 1 1 -17.95666,0 8.9783278,8.9783278 0 1 1 17.95666,0 z"
       sodipodi:ry="8.9783278"
       sodipodi:rx="8.9783278"
       sodipodi:cy="321.26974"
       sodipodi:cx="288.58911"
       id="path5269"
       style="fill:#000000;fill-opacity:1;stroke:#000000;stroke-width:4;stroke-linecap:square;stroke-linejoin:bevel;stroke-miterlimit:4;stroke-opacity:1;stroke-dasharray:none;stroke-dashoffset:0"
       sodipodi:type="arc" />
    <text
       sodipodi:linespacing="125%"
       id="text5271"
       y="732.24445"
       x="55.512177"
       style="font-size:20px;font-style:normal;font-variant:normal;font-weight:normal;font-stretch:normal;text-align:start;line-height:125%;letter-spacing:0px;word-spacing:0px;writing-mode:lr;text-anchor:start;fill:#000000;fill-opacity:1;stroke:none;font-family:Open Sans;-inkscape-font-specification:Open Sans"
       xml:space="preserve"><tspan
         y="732.24445"
         x="55.512177"
         id="tspan5273"
         sodipodi:role="line">inferred concept</tspan></text>
    <path
       sodipodi:type="arc"
       style="fill:#ff6600;fill-opacity:1;stroke:#000000;stroke-width:4;stroke-linecap:square;stroke-linejoin:bevel;stroke-miterlimit:4;stroke-opacity:1;stroke-dasharray:none;stroke-dashoffset:0"
       id="path5275"
       sodipodi:cx="288.58911"
       sodipodi:cy="321.26974"
       sodipodi:rx="8.9783278"
       sodipodi:ry="8.9783278"
       d="m 297.56744,321.26974 a 8.9783278,8.9783278 0 1 1 -17.95666,0 8.9783278,8.9783278 0 1 1 17.95666,0 z"
       transform="matrix(0.8394879,0,0,0.8394879,-202.87072,457.37145)" />
    <path
       sodipodi:nodetypes="cc"
       inkscape:connector-curvature="0"
       id="path5277"
       d="m 264.14546,885.73477 c -44.80698,-0.0889 -59.81233,19.47647 -60.00423,59.5242"
       style="fill:none;stroke:#000000;stroke-width:1.67897582;stroke-linecap:butt;stroke-linejoin:miter;stroke-miterlimit:4;stroke-opacity:1;stroke-dasharray:none" />
    <path
       style="fill:none;stroke:#000000;stroke-width:1.67897582;stroke-linecap:butt;stroke-linejoin:miter;stroke-miterlimit:4;stroke-opacity:1;stroke-dasharray:none"
       d="m 281.90671,885.73477 c 44.80698,-0.0889 59.81233,19.47647 60.00423,59.5242"
       id="path5279"
       inkscape:connector-curvature="0"
       sodipodi:nodetypes="cc" />
  </g>
</svg>
