<?xml version="1.0" encoding="UTF-8" standalone="no"?>
<!-- Created with Inkscape (http://www.inkscape.org/) -->

<svg
   xmlns:dc="http://purl.org/dc/elements/1.1/"
   xmlns:cc="http://creativecommons.org/ns#"
   xmlns:rdf="http://www.w3.org/1999/02/22-rdf-syntax-ns#"
   xmlns:svg="http://www.w3.org/2000/svg"
   xmlns="http://www.w3.org/2000/svg"
   xmlns:sodipodi="http://sodipodi.sourceforge.net/DTD/sodipodi-0.dtd"
   xmlns:inkscape="http://www.inkscape.org/namespaces/inkscape"
   width="200"
   height="230"
   id="svg3105"
   version="1.1"
   inkscape:version="0.48.4 r9943 custom"
   sodipodi:docname="sparql_matchmaker_implementation.svg"
   inkscape:export-filename="/Users/mynarzjindrich/Dropbox/Public/dissertation/img/sparql_matchmaker_implementation.png"
   inkscape:export-xdpi="180.05898"
   inkscape:export-ydpi="180.05898">
  <defs
     id="defs3107">
    <marker
       inkscape:stockid="Arrow2Lend"
       orient="auto"
       refY="0"
       refX="0"
       id="Arrow2Lend"
       style="overflow:visible">
      <path
         id="path4118"
         style="fill-rule:evenodd;stroke-width:0.625;stroke-linejoin:round"
         d="M 8.7185878,4.0337352 -2.2072895,0.01601326 8.7185884,-4.0017078 c -1.7454984,2.3720609 -1.7354408,5.6174519 -6e-7,8.035443 z"
         transform="matrix(-1.1,0,0,-1.1,-1.1,0)"
         inkscape:connector-curvature="0" />
    </marker>
    <marker
       inkscape:stockid="Arrow2Lend"
       orient="auto"
       refY="0"
       refX="0"
       id="marker3247"
       style="overflow:visible">
      <path
         id="path3249"
         style="fill-rule:evenodd;stroke-width:0.625;stroke-linejoin:round"
         d="M 8.7185878,4.0337352 -2.2072895,0.01601326 8.7185884,-4.0017078 c -1.7454984,2.3720609 -1.7354408,5.6174519 -6e-7,8.035443 z"
         transform="matrix(-1.1,0,0,-1.1,-1.1,0)"
         inkscape:connector-curvature="0" />
    </marker>
  </defs>
  <sodipodi:namedview
     id="base"
     pagecolor="#ffffff"
     bordercolor="#666666"
     borderopacity="1.0"
     inkscape:pageopacity="0.0"
     inkscape:pageshadow="2"
     inkscape:zoom="1.2967566"
     inkscape:cx="354.91191"
     inkscape:cy="212.03381"
     inkscape:document-units="px"
     inkscape:current-layer="layer1"
     showgrid="false"
     inkscape:window-width="1285"
     inkscape:window-height="751"
     inkscape:window-x="1"
     inkscape:window-y="23"
     inkscape:window-maximized="0" />
  <metadata
     id="metadata3110">
    <rdf:RDF>
      <cc:Work
         rdf:about="">
        <dc:format>image/svg+xml</dc:format>
        <dc:type
           rdf:resource="http://purl.org/dc/dcmitype/StillImage" />
        <dc:title></dc:title>
      </cc:Work>
    </rdf:RDF>
  </metadata>
  <g
     inkscape:label="Layer 1"
     inkscape:groupmode="layer"
     id="layer1"
     transform="translate(0,-822.36218)">
    <g
       id="g4211"
       transform="translate(-316.01285,333.15117)">
      <g
         id="g4197">
        <path
           style="fill:#ffffff;fill-opacity:1;stroke:#000000;stroke-width:1.42770529;stroke-linejoin:bevel;stroke-miterlimit:4;stroke-opacity:1;stroke-dashoffset:0"
           d="m 330.93261,550.13833 0,-33.95959 88.13477,0 0,33.95959"
           id="rect3133"
           inkscape:connector-curvature="0"
           sodipodi:nodetypes="cccc" />
        <path
           sodipodi:type="arc"
           style="fill:#ffffff;fill-opacity:1;stroke:#000000;stroke-width:4.81675959;stroke-linejoin:bevel;stroke-miterlimit:4;stroke-opacity:1;stroke-dasharray:none;stroke-dashoffset:0"
           id="path3135"
           sodipodi:cx="1032.1428"
           sodipodi:cy="385.93362"
           sodipodi:rx="140.71428"
           sodipodi:ry="32.142857"
           d="m 1172.8571,385.93362 c 0,17.75201 -62.9999,32.14286 -140.7143,32.14286 -77.71433,0 -140.71426,-14.39085 -140.71426,-32.14286 0,-17.75201 62.99993,-32.14285 140.71426,-32.14285 77.7144,0 140.7143,14.39084 140.7143,32.14285 z"
           transform="matrix(0.3128403,0,0,0.28083063,52.104125,406.13292)" />
        <path
           style="fill:#ffffff;fill-opacity:1;stroke:#000000;stroke-width:1.42770529;stroke-linejoin:bevel;stroke-miterlimit:4;stroke-opacity:1;stroke-dashoffset:0"
           d="m 419.02109,550.20946 c 0,4.98531 -19.70891,9.0267 -44.0211,9.0267 -24.31218,0 -44.02109,-4.04139 -44.02109,-9.0267"
           id="path3137"
           inkscape:connector-curvature="0"
           sodipodi:nodetypes="csc" />
        <path
           sodipodi:nodetypes="csc"
           inkscape:connector-curvature="0"
           id="path3141"
           d="m 419.0211,520.62167 c 0,4.98532 -19.70892,9.0267 -44.02113,9.0267 -24.31216,0 -44.02108,-4.04138 -44.02108,-9.0267"
           style="fill:none;stroke:#000000;stroke-width:1.42770529;stroke-linejoin:bevel;stroke-miterlimit:4;stroke-opacity:1;stroke-dashoffset:0" />
        <text
           sodipodi:linespacing="125%"
           id="text3299"
           style="font-size:13.7547226px;font-style:normal;font-variant:normal;font-weight:normal;font-stretch:normal;text-align:center;line-height:125%;letter-spacing:0px;word-spacing:0px;writing-mode:lr-tb;text-anchor:middle;fill:#000000;fill-opacity:1;stroke:none;font-family:Open Sans;-inkscape-font-specification:Open Sans"
           xml:space="preserve"
           y="546.25372"
           x="374.68097"><tspan
             id="tspan3303"
             y="546.25372"
             x="374.68097"
             sodipodi:role="line">Virtuoso</tspan></text>
      </g>
      <text
         xml:space="preserve"
         style="font-size:13.05890846px;font-style:normal;font-variant:normal;font-weight:normal;font-stretch:normal;text-align:start;line-height:125%;letter-spacing:0px;word-spacing:0px;writing-mode:lr-tb;text-anchor:start;fill:#000000;fill-opacity:1;stroke:none;font-family:Open Sans;-inkscape-font-specification:Open Sans"
         x="382.28595"
         y="589.84265"
         id="text5221"
         sodipodi:linespacing="125%"><tspan
           style="font-size:13.05890846px;font-style:normal;font-variant:normal;font-weight:normal;font-stretch:normal;text-align:start;line-height:125%;writing-mode:lr-tb;text-anchor:start;fill:#000000;fill-opacity:1;font-family:Open Sans;-inkscape-font-specification:Open Sans"
           sodipodi:role="line"
           x="382.28595"
           y="589.84265"
           id="tspan5225">SPARQL</tspan></text>
      <path
         sodipodi:nodetypes="cc"
         style="fill:none;stroke:#000000;stroke-width:1.37547231;stroke-linecap:butt;stroke-linejoin:miter;stroke-opacity:1;marker-end:url(#Arrow2Lend)"
         d="m 374.27196,612.55191 0,-51.52954"
         id="path3939"
         inkscape:connector-curvature="0" />
      <g
         transform="translate(-138.45327,-148.98888)"
         id="g4188">
        <path
           sodipodi:type="arc"
           style="fill:#ffffff;fill-opacity:1;stroke:#000000;stroke-width:2.44872785;stroke-miterlimit:4;stroke-opacity:1;stroke-dasharray:none"
           id="path3373"
           sodipodi:cx="546.10284"
           sodipodi:cy="774.03076"
           sodipodi:rx="76.182854"
           sodipodi:ry="76.182854"
           d="m 622.2857,774.03076 c 0,42.07463 -34.10823,76.18286 -76.18286,76.18286 -42.07462,0 -76.18285,-34.10823 -76.18285,-76.18286 0,-42.07463 34.10823,-76.18285 76.18285,-76.18285 42.07463,0 76.18286,34.10822 76.18286,76.18285 z"
           transform="matrix(0.5839767,0,0,0.5839767,193.78966,355.41661)" />
        <g
           id="g4173"
           transform="matrix(1.1485455,0,0,1.1485455,167.4257,-86.4257)">
          <path
             style="fill:#91dc47"
             id="path10"
             d="m 299.03236,778.94282 c -0.38084,0.82526 -0.80108,1.75251 -1.23623,2.73937 -1.53824,3.48513 -3.24173,7.72597 -3.86398,10.44282 -0.22353,0.96765 -0.36196,2.16678 -0.35931,3.49639 0,0.52589 0.0282,1.07859 0.0729,1.64157 2.17473,0.79909 4.52365,1.23854 6.97656,1.24284 2.23302,-0.004 4.37827,-0.37322 6.3861,-1.04084 -0.4719,-0.4315 -0.92228,-0.89148 -1.33226,-1.40975 -2.72214,-3.47122 -4.24084,-8.55851 -6.64374,-17.1124"
             inkscape:connector-curvature="0" />
          <path
             style="fill:#91dc47"
             id="path12"
             d="m 288.98229,761.69664 c -5.19889,3.66396 -8.6009,9.70698 -8.61382,16.55538 0.0129,6.74608 3.3126,12.71094 8.38068,16.39014 1.24318,-5.17836 4.3594,-9.91992 9.03241,-19.42423 -0.27751,-0.76233 -0.59377,-1.59686 -0.94778,-2.47344 -1.29451,-3.24736 -3.16292,-7.01862 -4.83031,-8.72642 -0.85009,-0.89214 -1.88165,-1.66309 -3.02118,-2.32143"
             inkscape:connector-curvature="0" />
          <path
             style="fill:#63b132"
             id="path14"
             d="m 318.26485,801.48295 c -2.68241,-0.33613 -4.89622,-0.7418 -6.83284,-1.42499 -3.2573,1.61739 -6.92557,2.53106 -10.80975,2.53106 -13.43983,0 -24.33468,-10.8932 -24.33634,-24.337 0,-7.29447 3.21358,-13.83357 8.29756,-18.29331 -1.35974,-0.32852 -2.77777,-0.52026 -4.22627,-0.51761 -7.14049,0.0672 -14.67804,4.01897 -17.81611,14.69128 -0.29341,1.55348 -0.22354,2.72811 -0.22354,4.12031 0,21.1562 17.15115,38.30734 38.30569,38.30734 12.95567,0 24.40059,-6.43743 31.33145,-16.28284 -3.74874,0.9342 -7.35376,1.38094 -10.44084,1.39054 -1.15707,0 -2.24328,-0.0619 -3.24901,-0.18478"
             inkscape:connector-curvature="0" />
          <path
             style="fill:#90b4fe"
             id="path16"
             d="m 311.06674,794.06031 c 0.23645,0.11723 0.77259,0.30864 1.5187,0.52025 5.0194,-3.68482 8.28134,-9.62021 8.29425,-16.32854 l -0.002,0 c -0.0189,-11.18363 -9.06916,-20.23259 -20.25544,-20.25478 -2.22341,0.004 -4.3594,0.37123 -6.35928,1.03388 4.11268,4.68791 6.09038,11.3873 8.00349,18.71555 0.001,0.003 0.003,0.006 0.003,0.009 0.004,0.006 0.61199,2.03498 1.65647,4.72699 1.03719,2.68836 2.51483,6.01653 4.12626,8.44195 1.05806,1.62534 2.22176,2.79334 3.01423,3.13609"
             inkscape:connector-curvature="0" />
          <path
             style="fill:#5881d8"
             id="path18"
             d="m 300.62325,739.94468 c -12.83049,0 -24.18003,6.31622 -31.13175,16.00102 3.61793,-2.2658 7.31202,-3.08311 10.53587,-3.05396 4.45279,0.0129 7.95349,1.39352 9.63314,2.33799 0.40567,0.2338 0.79081,0.48548 1.168,0.74412 2.99701,-1.32001 6.30861,-2.05817 9.79375,-2.05817 13.44148,0.002 24.33799,10.89486 24.33998,24.33634 l -0.002,0 c 0,6.77688 -2.77181,12.90434 -7.24016,17.31673 1.0968,0.12286 2.26646,0.19936 3.46096,0.1934 4.2425,0.002 8.82808,-0.93421 12.26586,-3.82557 2.24163,-1.88828 4.11964,-4.65314 5.16114,-8.79861 0.20366,-1.60116 0.32089,-3.22882 0.32089,-4.88528 0,-21.15521 -17.14949,-38.30801 -38.30569,-38.30801"
             inkscape:connector-curvature="0" />
        </g>
      </g>
      <text
         sodipodi:linespacing="125%"
         id="text4205"
         y="655.17896"
         x="426.24176"
         style="font-size:13.05890846px;font-style:normal;font-variant:normal;font-weight:normal;font-stretch:normal;text-align:start;line-height:125%;letter-spacing:0px;word-spacing:0px;writing-mode:lr-tb;text-anchor:start;fill:#000000;fill-opacity:1;stroke:none;font-family:Open Sans;-inkscape-font-specification:Open Sans"
         xml:space="preserve"><tspan
           id="tspan4207"
           y="655.17896"
           x="426.24176"
           sodipodi:role="line"
           style="font-size:13.05890846px;font-style:normal;font-variant:normal;font-weight:normal;font-stretch:normal;text-align:start;line-height:125%;writing-mode:lr-tb;text-anchor:start;fill:#000000;fill-opacity:1;font-family:Open Sans;-inkscape-font-specification:Open Sans">Clojure</tspan><tspan
           id="tspan4209"
           y="671.50256"
           x="426.24176"
           sodipodi:role="line"
           style="font-size:13.05890846px;font-style:normal;font-variant:normal;font-weight:normal;font-stretch:normal;text-align:start;line-height:125%;writing-mode:lr-tb;text-anchor:start;fill:#000000;fill-opacity:1;font-family:Open Sans;-inkscape-font-specification:Open Sans">matchmaker</tspan></text>
    </g>
  </g>
</svg>
