<?xml version="1.0" encoding="UTF-8" standalone="no"?>
<!-- Generated by graphviz version 2.38.0 (20140413.2041)
 -->

<!-- Title: %3 Pages: 1 -->

<svg
   xmlns:dc="http://purl.org/dc/elements/1.1/"
   xmlns:cc="http://creativecommons.org/ns#"
   xmlns:rdf="http://www.w3.org/1999/02/22-rdf-syntax-ns#"
   xmlns:svg="http://www.w3.org/2000/svg"
   xmlns="http://www.w3.org/2000/svg"
   xmlns:sodipodi="http://sodipodi.sourceforge.net/DTD/sodipodi-0.dtd"
   xmlns:inkscape="http://www.inkscape.org/namespaces/inkscape"
   width="583pt"
   height="874pt"
   viewBox="0.00 0.00 583.00 874.00"
   id="svg2985"
   version="1.1"
   inkscape:version="0.48.4 r9943 custom"
   sodipodi:docname="public_procurement_cloud.svg"
   inkscape:export-filename="/Users/mynarzjindrich/Dropbox/Public/dissertation/img/public_procurement_cloud.png"
   inkscape:export-xdpi="90.030876"
   inkscape:export-ydpi="90.030876">
  <metadata
     id="metadata3080">
    <rdf:RDF>
      <cc:Work
         rdf:about="">
        <dc:format>image/svg+xml</dc:format>
        <dc:type
           rdf:resource="http://purl.org/dc/dcmitype/StillImage" />
        <dc:title></dc:title>
      </cc:Work>
    </rdf:RDF>
  </metadata>
  <defs
     id="defs3078" />
  <sodipodi:namedview
     pagecolor="#ffffff"
     bordercolor="#666666"
     borderopacity="1"
     objecttolerance="10"
     gridtolerance="10"
     guidetolerance="10"
     inkscape:pageopacity="0"
     inkscape:pageshadow="2"
     inkscape:window-width="1280"
     inkscape:window-height="751"
     id="namedview3076"
     showgrid="false"
     inkscape:zoom="0.65502669"
     inkscape:cx="551.11047"
     inkscape:cy="575.50464"
     inkscape:window-x="0"
     inkscape:window-y="23"
     inkscape:window-maximized="0"
     inkscape:current-layer="svg2985" />
  <ellipse
     cx="383.5"
     cy="-740"
     rx="126"
     ry="126"
     id="ellipse2995"
     d="m 509.5,-740 c 0,69.58788 -56.41212,126 -126,126 -69.58788,0 -126,-56.41212 -126,-126 0,-69.58788 56.41212,-126 126,-126 69.58788,0 126,56.41212 126,126 z"
     sodipodi:cx="383.5"
     sodipodi:cy="-740"
     sodipodi:rx="126"
     sodipodi:ry="126"
     style="fill:none;stroke:#000000;stroke-width:2.4;stroke-miterlimit:4;stroke-dasharray:none"
     transform="translate(4,870)" />
  <ellipse
     cx="133.5"
     cy="-444.5"
     rx="133.5"
     ry="133.5"
     id="ellipse3002"
     d="M 267,-444.5 C 267,-370.76999 207.23001,-311 133.5,-311 59.769986,-311 0,-370.76999 0,-444.5 0,-518.23001 59.769986,-578 133.5,-578 c 73.73001,0 133.5,59.76999 133.5,133.5 z"
     sodipodi:cx="133.5"
     sodipodi:cy="-444.5"
     sodipodi:rx="133.5"
     sodipodi:ry="133.5"
     style="fill:none;stroke:#000000;stroke-width:2.4;stroke-miterlimit:4;stroke-dasharray:none"
     transform="translate(4,870)" />
  <text
     x="137.5"
     y="429.91199"
     font-size="37.05"
     id="text3004"
     style="font-size:37.04999924px;text-anchor:middle;font-family:Open Sans">ARES</text>
  <path
     d="m 305.987,226.697 c -24.199,28.409 -50.881,59.733 -75.737,88.914"
     id="path3009"
     inkscape:connector-curvature="0"
     style="fill:none;stroke:#000000;stroke-width:4.48527002" />
  <polygon
     points="219.634,-546.621 223.13,-556.778 229.106,-551.689 229.106,-551.689 "
     id="polygon3011"
     style="fill:#000000;stroke:#000000;stroke-width:4.48527002"
     transform="translate(8.274635,865.1147)" />
  <ellipse
     cx="383.5"
     cy="-444.5"
     rx="98.5"
     ry="98.5"
     id="ellipse3016"
     d="m 482,-444.5 c 0,54.40005 -44.09995,98.5 -98.5,98.5 -54.40005,0 -98.5,-44.09995 -98.5,-98.5 0,-54.40005 44.09995,-98.5 98.5,-98.5 54.40005,0 98.5,44.09995 98.5,98.5 z"
     sodipodi:cx="383.5"
     sodipodi:cy="-444.5"
     sodipodi:rx="98.5"
     sodipodi:ry="98.5"
     style="fill:none;stroke:#000000;stroke-width:2.4;stroke-miterlimit:4;stroke-dasharray:none"
     transform="translate(4,870)" />
  <text
     x="387.5"
     y="428.75299"
     font-size="27.31"
     id="text3018"
     style="font-size:27.30999947px;text-anchor:middle;font-family:Open Sans">CPV</text>
  <path
     d="m 387.5,256.322 c 0,20.034 0,40.613 0,60.199"
     id="path3023"
     inkscape:connector-curvature="0"
     style="fill:none;stroke:#000000;stroke-width:5.49841976" />
  <polygon
     points="388.311,-553.335 383.5,-543.335 378.689,-553.335 388.311,-553.335 "
     id="polygon3025"
     style="fill:#000000;stroke:#000000;stroke-width:5.49841976"
     transform="translate(4,863.6)" />
  <ellipse
     cx="437.5"
     cy="-137.5"
     rx="137.5"
     ry="137.5"
     id="ellipse3030"
     d="M 575,-137.5 C 575,-61.560847 513.43915,0 437.5,0 361.56085,0 300,-61.560847 300,-137.5 c 0,-75.93915 61.56085,-137.5 137.5,-137.5 75.93915,0 137.5,61.56085 137.5,137.5 z"
     sodipodi:cx="437.5"
     sodipodi:cy="-137.5"
     sodipodi:rx="137.5"
     sodipodi:ry="137.5"
     style="fill:none;stroke:#000000;stroke-width:2.4;stroke-miterlimit:4;stroke-dasharray:none"
     transform="translate(4,870)" />
  <path
     d="m 466.175,228.971 c 63.3736,108.41264 55.55107,241.16904 22.734,363.644"
     id="path3037"
     inkscape:connector-curvature="0"
     style="fill:none;stroke:#000000;stroke-width:5.32327986"
     sodipodi:nodetypes="cc" />
  <polygon
     points="482.493,-267.486 480.339,-278.306 489.389,-276.097 489.389,-276.097 "
     id="polygon3039"
     style="fill:#000000;stroke:#000000;stroke-width:5.32327986"
     transform="translate(5.2213243,862.67205)" />
  <path
     d="m 231.606,520.915 c 33.536,33.647 71.493,71.729 105.818,106.167"
     id="path3044"
     inkscape:connector-curvature="0"
     style="fill:none;stroke:#000000;stroke-width:5.46432018" />
  <polygon
     points="330.245,-239.335 337.018,-246.086 337.018,-246.086 340.691,-235.628 "
     id="polygon3046"
     style="fill:#000000;stroke:#000000;stroke-width:5.46432018"
     transform="translate(-1.4959593,865.1147)" />
  <ellipse
     cx="133.5"
     cy="-137.5"
     rx="76"
     ry="76"
     id="ellipse3051"
     d="m 209.5,-137.5 c 0,41.973641 -34.02636,76 -76,76 -41.973641,0 -76,-34.026359 -76,-76 0,-41.97364 34.026359,-76 76,-76 41.97364,0 76,34.02636 76,76 z"
     sodipodi:cx="133.5"
     sodipodi:cy="-137.5"
     sodipodi:rx="76"
     sodipodi:ry="76"
     style="fill:none;stroke:#000000;stroke-width:2.4;stroke-miterlimit:4;stroke-dasharray:none"
     transform="translate(4,870)" />
  <text
     x="137.5"
     y="735.021"
     font-size="21.16"
     id="text3053"
     style="font-size:21.15999985px;text-anchor:middle;font-family:Open Sans">CZ-NACE</text>
  <path
     d="m 137.5,559.39 c 0,29.466 0,59.924 0,86.877"
     id="path3058"
     inkscape:connector-curvature="0"
     style="fill:none;stroke:#000000;stroke-width:5.94106007" />
  <polygon
     points="128.302,-223.585 138.699,-223.584 138.699,-223.584 133.5,-213.585 "
     id="polygon3060"
     style="fill:#000000;stroke:#000000;stroke-width:5.94106007"
     transform="translate(4,862.61066)" />
  <ellipse
     cx="133.5"
     cy="-740"
     rx="85.5"
     ry="85.5"
     id="ellipse3065"
     d="m 219,-740 c 0,47.22035 -38.27965,85.5 -85.5,85.5 -47.220346,0 -85.5,-38.27965 -85.5,-85.5 0,-47.22035 38.279654,-85.5 85.5,-85.5 47.22035,0 85.5,38.27965 85.5,85.5 z"
     sodipodi:cx="133.5"
     sodipodi:cy="-740"
     sodipodi:rx="85.5"
     sodipodi:ry="85.5"
     style="fill:none;stroke:#000000;stroke-width:2.4;stroke-miterlimit:4;stroke-dasharray:none"
     transform="translate(4,870)" />
  <text
     x="137.5"
     y="132.836"
     font-size="23.81"
     id="text3067"
     style="font-size:23.80999947px;text-anchor:middle;font-family:Open Sans">zIndex</text>
  <path
     d="m 137.5,215.892 c 0,20.721 0,43.455 0,66.056"
     id="path3072"
     inkscape:connector-curvature="0"
     style="fill:none;stroke:#000000;stroke-width:3.8082099" />
  <polygon
     points="137,-588.033 133.5,-578.033 130,-588.033 137,-588.033 "
     id="polygon3074"
     style="fill:#000000;stroke:#000000;stroke-width:3.8082099"
     transform="translate(4,863.6)" />
  <text
     xml:space="preserve"
     style="font-size:34.87999725px;font-style:normal;font-variant:normal;font-weight:normal;font-stretch:normal;text-align:center;line-height:125%;letter-spacing:0px;word-spacing:0px;writing-mode:lr-tb;text-anchor:middle;fill:#000000;fill-opacity:1;stroke:none;font-family:Open Sans;-inkscape-font-specification:Open Sans"
     x="386.37595"
     y="73.660629"
     id="text3147"
     sodipodi:linespacing="125%"><tspan
       sodipodi:role="line"
       id="tspan3149"
       x="386.37595"
       y="73.660629">Czech</tspan><tspan
       sodipodi:role="line"
       x="386.37595"
       y="117.26062"
       id="tspan3153">public</tspan><tspan
       sodipodi:role="line"
       x="386.37595"
       y="160.86063"
       id="tspan3157">procurement</tspan><tspan
       sodipodi:role="line"
       x="386.37595"
       y="204.46063"
       id="tspan3159">register</tspan></text>
  <text
     sodipodi:linespacing="125%"
     id="text3161"
     y="722.96399"
     x="441.49069"
     style="font-size:38.14400101px;font-style:normal;font-variant:normal;font-weight:normal;font-stretch:normal;text-align:center;line-height:125%;letter-spacing:0px;word-spacing:0px;writing-mode:lr-tb;text-anchor:middle;fill:#000000;fill-opacity:1;stroke:none;font-family:Open Sans;-inkscape-font-specification:Open Sans"
     xml:space="preserve"><tspan
       id="tspan3169"
       y="722.96399"
       x="441.49069"
       sodipodi:role="line">Czech</tspan><tspan
       y="770.64398"
       x="441.49069"
       sodipodi:role="line"
       id="tspan3180">addresses</tspan></text>
</svg>
