<?xml version="1.0" encoding="UTF-8" standalone="no"?>
<!DOCTYPE svg PUBLIC "-//W3C//DTD SVG 1.1//EN"
 "http://www.w3.org/Graphics/SVG/1.1/DTD/svg11.dtd">
<!-- Generated by graphviz version 2.38.0 (20140413.2041)
 -->
<!-- Title: %3 Pages: 1 -->
<svg width="644pt" height="607pt"
 viewBox="0.00 0.00 644.26 607.28" xmlns="http://www.w3.org/2000/svg" xmlns:xlink="http://www.w3.org/1999/xlink">
<g id="graph0" class="graph" transform="scale(1 1) rotate(0) translate(371.254 307.228)">
<title>%3</title>
<polygon fill="white" stroke="none" points="-371.254,300.052 -371.254,-307.228 273.009,-307.228 273.009,300.052 -371.254,300.052"/>
<!-- vvz -->
<g id="node1" class="node"><title>vvz</title>
<ellipse fill="none" stroke="black" cx="-61.0033" cy="1.16193" rx="169.941" ry="169.941"/>
<text text-anchor="middle" x="-61.0033" y="2.82921" font-family="Open Sans" font-size="14.00">Czech public procurement register</text>
</g>
<!-- ares -->
<g id="node2" class="node"><title>ares</title>
<ellipse fill="none" stroke="black" cx="-25.0453" cy="-268.592" rx="34.7735" ry="34.7735"/>
<text text-anchor="middle" x="-25.0453" y="-266.925" font-family="Open Sans" font-size="14.00">ARES</text>
</g>
<!-- vvz&#45;&gt;ares -->
<g id="edge1" class="edge"><title>vvz&#45;&gt;ares</title>
<path fill="none" stroke="black" d="M-38.537,-167.378C-35.7887,-187.996 -33.1899,-207.492 -31.0203,-223.768"/>
<polygon fill="black" stroke="black" points="-34.4501,-224.528 -29.6594,-233.977 -27.5115,-223.603 -34.4501,-224.528"/>
</g>
<!-- cpv -->
<g id="node3" class="node"><title>cpv</title>
<ellipse fill="none" stroke="black" cx="-29.0979" cy="266.641" rx="29.3227" ry="29.3227"/>
<text text-anchor="middle" x="-29.0979" y="268.308" font-family="Open Sans" font-size="14.00">CPV</text>
</g>
<!-- vvz&#45;&gt;cpv -->
<g id="edge2" class="edge"><title>vvz&#45;&gt;cpv</title>
<path fill="none" stroke="black" d="M-40.7519,169.67C-38.1832,191.044 -35.7751,211.081 -33.8224,227.33"/>
<polygon fill="black" stroke="black" points="-30.3261,227.09 -32.6078,237.436 -37.2761,227.925 -30.3261,227.09"/>
</g>
<!-- czechAddresses -->
<g id="node4" class="node"><title>czechAddresses</title>
<ellipse fill="none" stroke="black" cx="-267.767" cy="-208.604" rx="87.7218" ry="87.7218"/>
<text text-anchor="middle" x="-267.767" y="-206.936" font-family="Open Sans" font-size="14.00">Czech addresses</text>
</g>
<!-- vvz&#45;&gt;czechAddresses -->
<g id="edge3" class="edge"><title>vvz&#45;&gt;czechAddresses</title>
<path fill="none" stroke="black" d="M-180.38,-119.948C-186.55,-126.208 -192.642,-132.388 -198.565,-138.397"/>
<polygon fill="black" stroke="black" points="-201.444,-136.331 -205.971,-145.91 -196.458,-141.245 -201.444,-136.331"/>
</g>
<!-- zIndex -->
<g id="node5" class="node"><title>zIndex</title>
<ellipse fill="none" stroke="black" cx="216.932" cy="-11.8024" rx="41.2787" ry="41.2787"/>
<text text-anchor="middle" x="216.932" y="-10.1351" font-family="Open Sans" font-size="14.00">zIndex</text>
</g>
<!-- vvz&#45;&gt;zIndex -->
<g id="edge4" class="edge"><title>vvz&#45;&gt;zIndex</title>
<path fill="none" stroke="black" d="M108.679,-6.75291C129.176,-7.709 148.735,-8.62132 165.448,-9.40091"/>
<polygon fill="black" stroke="black" points="165.318,-12.8985 175.47,-9.86837 165.644,-5.90614 165.318,-12.8985"/>
</g>
<!-- esfCz -->
<g id="node7" class="node"><title>esfCz</title>
<ellipse fill="none" stroke="black" cx="-270.653" cy="195.792" rx="96.7005" ry="96.7005"/>
<text text-anchor="middle" x="-270.653" y="197.459" font-family="Open Sans" font-size="14.00">Czech ESF projects</text>
</g>
<!-- vvz&#45;&gt;esfCz -->
<g id="edge5" class="edge"><title>vvz&#45;&gt;esfCz</title>
<path fill="none" stroke="black" d="M-185.683,116.909C-187.909,118.975 -190.122,121.03 -192.319,123.07"/>
<polygon fill="black" stroke="black" points="-190.008,125.7 -199.718,129.938 -194.77,120.57 -190.008,125.7"/>
</g>
<!-- ares&#45;&gt;czechAddresses -->
<g id="edge7" class="edge"><title>ares&#45;&gt;czechAddresses</title>
<path fill="none" stroke="black" d="M-58.7948,-260.251C-88.2175,-252.979 -132.351,-242.072 -172.489,-232.151"/>
<polygon fill="black" stroke="black" points="-171.778,-228.722 -182.326,-229.72 -173.458,-235.517 -171.778,-228.722"/>
</g>
<!-- nace -->
<g id="node6" class="node"><title>nace</title>
<ellipse fill="none" stroke="black" cx="232.415" cy="-266.506" rx="36.6886" ry="36.6886"/>
<text text-anchor="middle" x="232.415" y="-264.838" font-family="Open Sans" font-size="14.00">NACE</text>
</g>
<!-- ares&#45;&gt;nace -->
<g id="edge8" class="edge"><title>ares&#45;&gt;nace</title>
<path fill="none" stroke="black" d="M9.67688,-268.311C55.1341,-267.942 134.979,-267.295 185.705,-266.884"/>
<polygon fill="black" stroke="black" points="185.782,-270.384 195.753,-266.803 185.725,-263.384 185.782,-270.384"/>
</g>
<!-- cpa -->
<g id="node8" class="node"><title>cpa</title>
<ellipse fill="none" stroke="black" cx="231.27" cy="248.221" rx="29.0822" ry="29.0822"/>
<text text-anchor="middle" x="231.27" y="249.888" font-family="Open Sans" font-size="14.00">CPA</text>
</g>
<!-- cpv&#45;&gt;cpa -->
<g id="edge6" class="edge"><title>cpv&#45;&gt;cpa</title>
<path fill="none" stroke="black" d="M0.263432,264.564C47.1705,261.245 139.074,254.744 191.721,251.019"/>
<polygon fill="black" stroke="black" points="191.794,247.505 202.016,250.291 192.288,254.488 191.794,247.505"/>
</g>
</g>
</svg>
